<svg version="1.1" xmlns="http://www.w3.org/2000/svg" viewBox="0 0 2473.6010792737857 622.4119364926894" width="7420.8032378213575" height="1867.2358094780682">
  <!-- svg-source:excalidraw -->
  
  <defs>
    <style class="style-fonts">
      @font-face {
        font-family: "Virgil";
        src: url("https://excalidraw.com/Virgil.woff2");
      }
      @font-face {
        font-family: "Cascadia";
        src: url("https://excalidraw.com/Cascadia.woff2");
      }
      @font-face {
        font-family: "Assistant";
        src: url("https://excalidraw.com/Assistant-Regular.woff2");
      }
    </style>
    
  </defs>
  <rect x="0" y="0" width="2473.6010792737857" height="622.4119364926894" fill="#ffffff"></rect><g stroke-linecap="round" transform="translate(10 185.87727832130741) rotate(0 151.72052654550265 30.057840164675042)"><path d="M15.03 0 C73.82 -1.22, 132.57 -4.27, 288.41 0 C298.25 -1.74, 300.14 7.74, 303.44 15.03 C303.01 18.23, 303.62 28.13, 303.44 45.09 C302.74 58.06, 296.91 58.79, 288.41 60.12 C182.47 59.32, 78.96 61.07, 15.03 60.12 C5.26 58.31, -3.5 56.89, 0 45.09 C-1.58 37.81, 2.41 31.44, 0 15.03 C-2.64 6.17, 7.74 -2.65, 15.03 0" stroke="none" stroke-width="0" fill="#a5d8ff"></path><path d="M15.03 0 C71.34 -1, 127.97 -1.67, 288.41 0 M15.03 0 C73.57 2.3, 133.39 2.49, 288.41 0 M288.41 0 C298.97 0.12, 302.09 3.64, 303.44 15.03 M288.41 0 C297.52 -1.19, 301.83 7.26, 303.44 15.03 M303.44 15.03 C302.61 27.07, 303.78 37.51, 303.44 45.09 M303.44 15.03 C302.75 23, 302.8 30.94, 303.44 45.09 M303.44 45.09 C304.53 55.23, 297.64 59.16, 288.41 60.12 M303.44 45.09 C302.39 54.96, 300.64 61.74, 288.41 60.12 M288.41 60.12 C210.19 59.54, 131.55 60.22, 15.03 60.12 M288.41 60.12 C196.05 61.43, 103.61 60.71, 15.03 60.12 M15.03 60.12 C5.74 59.18, -0.31 53.46, 0 45.09 M15.03 60.12 C7.3 59.69, 1.3 55.28, 0 45.09 M0 45.09 C-1.26 36.39, -0.39 29.06, 0 15.03 M0 45.09 C0.71 39.02, 0.94 31.25, 0 15.03 M0 15.03 C-1.24 3.24, 5.83 1.19, 15.03 0 M0 15.03 C0.66 4.66, 4.22 2.27, 15.03 0" stroke="#1971c2" stroke-width="2" fill="none"></path></g><g transform="translate(31.500616877533957 190.93511848598246) rotate(0 130.2199096679687 25)"><text x="130.21990966796875" y="0" font-family="Virgil, Segoe UI Emoji" font-size="20px" fill="#1971c2" text-anchor="middle" style="white-space: pre;" direction="ltr" dominant-baseline="text-before-edge">O código de hoje não é o </text><text x="130.21990966796875" y="25" font-family="Virgil, Segoe UI Emoji" font-size="20px" fill="#1971c2" text-anchor="middle" style="white-space: pre;" direction="ltr" dominant-baseline="text-before-edge">código de ontem</text></g><g stroke-linecap="round" transform="translate(12.809526190479232 280.1155111461547) rotate(0 151.7205265455027 30.057840164675042)"><path d="M15.03 0 C114.91 -1.23, 221.78 0.94, 288.41 0 C302 1.23, 303.4 7.98, 303.44 15.03 C303.09 19.47, 305.81 29.03, 303.44 45.09 C304.31 52.04, 296.39 57.94, 288.41 60.12 C211.82 60.08, 142.29 56.02, 15.03 60.12 C6.85 59.38, 2.76 56.53, 0 45.09 C-1.12 36.42, -1.57 29.2, 0 15.03 C-1.07 7.45, 3.53 -2.33, 15.03 0" stroke="none" stroke-width="0" fill="#a5d8ff"></path><path d="M15.03 0 C88.89 -2.46, 162.05 -0.5, 288.41 0 M15.03 0 C89.41 1.04, 163.44 1.2, 288.41 0 M288.41 0 C298.24 0.66, 304.26 4.87, 303.44 15.03 M288.41 0 C297.97 0.75, 302.49 6.76, 303.44 15.03 M303.44 15.03 C303.21 22.2, 305.11 28.38, 303.44 45.09 M303.44 15.03 C302.72 27.84, 303.71 39.32, 303.44 45.09 M303.44 45.09 C305.19 54.39, 296.5 59.74, 288.41 60.12 M303.44 45.09 C304.6 53.81, 299.49 58.89, 288.41 60.12 M288.41 60.12 C225.87 59.47, 163.43 59, 15.03 60.12 M288.41 60.12 C191.46 60.95, 93.08 60.35, 15.03 60.12 M15.03 60.12 C5.63 58.81, -0.42 54.99, 0 45.09 M15.03 60.12 C4.79 62.14, -1.8 53.02, 0 45.09 M0 45.09 C-0.3 32.17, -0.94 22.73, 0 15.03 M0 45.09 C0.22 38.41, -0.39 31.06, 0 15.03 M0 15.03 C-0.13 5.77, 5.78 -0.67, 15.03 0 M0 15.03 C2.09 3.11, 3.24 0.17, 15.03 0" stroke="#1971c2" stroke-width="2" fill="none"></path></g><g transform="translate(28.44014795082569 285.1733513108298) rotate(0 136.08990478515625 25)"><text x="136.08990478515625" y="0" font-family="Virgil, Segoe UI Emoji" font-size="20px" fill="#1971c2" text-anchor="middle" style="white-space: pre;" direction="ltr" dominant-baseline="text-before-edge">É fundamental verificar as </text><text x="136.08990478515625" y="25" font-family="Virgil, Segoe UI Emoji" font-size="20px" fill="#1971c2" text-anchor="middle" style="white-space: pre;" direction="ltr" dominant-baseline="text-before-edge">mudanças em si</text></g><g stroke-linecap="round" transform="translate(17.55515540173667 370.6825299068732) rotate(0 151.7205265455027 42.5)"><path d="M21.25 0 C107.87 1.12, 196.41 -0.83, 282.19 0 C298.69 -1.33, 300.32 3.95, 303.44 21.25 C306.13 34.61, 304.33 44.73, 303.44 63.75 C304.39 77.39, 295.52 84.33, 282.19 85 C228.44 86.72, 170.29 88.27, 21.25 85 C8.26 85.65, 2.13 80.16, 0 63.75 C-2.93 51.11, -2.54 41.63, 0 21.25 C1.18 7.41, 5.94 -3.33, 21.25 0" stroke="none" stroke-width="0" fill="#a5d8ff"></path><path d="M21.25 0 C100.87 2.73, 181.41 0.14, 282.19 0 M21.25 0 C86.23 -0.67, 150.65 -0.77, 282.19 0 M282.19 0 C296.27 -0.57, 302.52 7.86, 303.44 21.25 M282.19 0 C296.61 -2.28, 303.59 8.5, 303.44 21.25 M303.44 21.25 C304.57 35.98, 303.59 52.51, 303.44 63.75 M303.44 21.25 C304.04 35.68, 303.52 50.3, 303.44 63.75 M303.44 63.75 C302.45 79.57, 297.6 86.74, 282.19 85 M303.44 63.75 C302.89 79.76, 297.62 82.83, 282.19 85 M282.19 85 C203 83.01, 121.88 83.05, 21.25 85 M282.19 85 C192.62 85.01, 102.05 84.01, 21.25 85 M21.25 85 C8.99 86.96, 0.49 79.73, 0 63.75 M21.25 85 C5.57 86.82, -1.48 78.43, 0 63.75 M0 63.75 C0.41 53.05, -0.98 42.24, 0 21.25 M0 63.75 C0.39 54.45, 0.28 44.44, 0 21.25 M0 21.25 C-0.99 6.8, 6.15 -0.22, 21.25 0 M0 21.25 C1.49 5.55, 6.34 1.57, 21.25 0" stroke="#1971c2" stroke-width="2" fill="none"></path></g><g transform="translate(30.665788148411252 375.6825299068732) rotate(0 138.60989379882812 37.5)"><text x="138.60989379882812" y="0" font-family="Virgil, Segoe UI Emoji" font-size="20px" fill="#1971c2" text-anchor="middle" style="white-space: pre;" direction="ltr" dominant-baseline="text-before-edge">O git e o github trabalham </text><text x="138.60989379882812" y="25" font-family="Virgil, Segoe UI Emoji" font-size="20px" fill="#1971c2" text-anchor="middle" style="white-space: pre;" direction="ltr" dominant-baseline="text-before-edge">com diretórios (pastas) e </text><text x="138.60989379882812" y="50" font-family="Virgil, Segoe UI Emoji" font-size="20px" fill="#1971c2" text-anchor="middle" style="white-space: pre;" direction="ltr" dominant-baseline="text-before-edge">arquivos</text></g><g stroke-linecap="round" transform="translate(403.07524065322775 278.7020254751977) rotate(0 12.356139512634513 11.045639867355078)"><path d="M14.51 0.08 C17.07 0.36, 19.76 2.39, 21.48 4.19 C23.2 5.99, 24.8 8.59, 24.83 10.88 C24.86 13.17, 23.26 16.14, 21.66 17.96 C20.06 19.77, 17.8 21.27, 15.23 21.76 C12.66 22.24, 8.59 21.97, 6.26 20.85 C3.93 19.72, 2.2 17.3, 1.23 15.01 C0.25 12.72, -0.31 9.27, 0.41 7.1 C1.12 4.92, 3.07 3.15, 5.53 1.95 C7.99 0.76, 13.48 0.23, 15.16 -0.07 C16.84 -0.38, 15.66 -0.17, 15.6 0.09 M15.23 0.54 C17.75 0.66, 19.9 1.95, 21.55 3.67 C23.2 5.39, 25.22 8.4, 25.13 10.85 C25.03 13.3, 22.73 16.47, 21.01 18.36 C19.29 20.24, 17.37 21.77, 14.79 22.16 C12.22 22.56, 7.87 22.07, 5.57 20.74 C3.28 19.4, 1.83 16.52, 1.02 14.15 C0.22 11.79, -0.05 8.65, 0.76 6.57 C1.58 4.5, 3.56 2.88, 5.91 1.71 C8.25 0.54, 13.42 -0.18, 14.83 -0.45 C16.24 -0.73, 14.28 -0.22, 14.37 0.06" stroke="none" stroke-width="0" fill="#a5d8ff"></path><path d="M13.67 0.25 C16.13 0.44, 19.24 2.15, 21.09 3.84 C22.94 5.53, 24.5 8.03, 24.77 10.38 C25.03 12.73, 24.22 16.08, 22.67 17.95 C21.11 19.82, 18.08 21.08, 15.41 21.58 C12.75 22.09, 9 21.99, 6.67 20.97 C4.34 19.95, 2.53 17.62, 1.44 15.48 C0.35 13.33, -0.49 10.45, 0.13 8.11 C0.75 5.77, 2.81 2.77, 5.15 1.43 C7.49 0.1, 12.55 0.29, 14.19 0.1 C15.82 -0.08, 14.93 0.16, 14.96 0.34 M12.66 -0.61 C15.33 -0.79, 18.92 0.66, 20.91 2.29 C22.91 3.92, 24.16 6.77, 24.63 9.16 C25.1 11.55, 25.2 14.61, 23.74 16.61 C22.28 18.61, 18.45 20.48, 15.87 21.16 C13.3 21.84, 10.67 21.42, 8.29 20.71 C5.91 20, 2.97 18.86, 1.61 16.89 C0.24 14.91, -0.38 11.24, 0.12 8.86 C0.63 6.47, 2.6 4.06, 4.62 2.58 C6.64 1.1, 10.9 0.25, 12.24 -0.03 C13.58 -0.31, 12.52 0.58, 12.64 0.89" stroke="#1971c2" stroke-width="2" fill="none"></path></g><g stroke-linecap="round" transform="translate(451.2669446013707 319.0307315516642) rotate(0 12.356139512634513 11.045639867355078)"><path d="M9.73 0.7 C12.17 0.09, 16.03 0.03, 18.34 1.12 C20.65 2.22, 22.67 4.99, 23.59 7.26 C24.51 9.52, 24.58 12.6, 23.87 14.73 C23.15 16.85, 21.45 18.8, 19.28 19.99 C17.11 21.17, 13.49 22.07, 10.86 21.85 C8.23 21.63, 5.27 20.39, 3.52 18.66 C1.77 16.94, 0.58 13.9, 0.36 11.51 C0.13 9.11, 0.52 6.21, 2.18 4.3 C3.84 2.39, 8.88 0.68, 10.33 0.06 C11.77 -0.57, 10.83 0.4, 10.85 0.54 M13.13 0.69 C15.51 0.55, 18.45 1.16, 20.25 2.62 C22.04 4.07, 23.35 7.01, 23.9 9.42 C24.45 11.83, 24.95 15.12, 23.56 17.08 C22.16 19.04, 18.23 20.41, 15.53 21.18 C12.84 21.95, 9.75 22.45, 7.39 21.71 C5.02 20.97, 2.61 18.93, 1.32 16.76 C0.03 14.59, -0.93 11.2, -0.38 8.69 C0.17 6.18, 2.51 3.09, 4.59 1.71 C6.68 0.33, 10.88 0.7, 12.11 0.42 C13.34 0.15, 11.92 -0.05, 12 0.07" stroke="none" stroke-width="0" fill="#a5d8ff"></path><path d="M9.51 0.15 C11.91 -0.49, 15.74 -0.21, 18.12 0.92 C20.5 2.05, 22.71 4.77, 23.78 6.92 C24.86 9.08, 25.24 11.56, 24.54 13.86 C23.85 16.16, 21.93 19.32, 19.61 20.72 C17.3 22.11, 13.29 22.66, 10.66 22.24 C8.02 21.83, 5.58 19.98, 3.79 18.2 C2 16.42, 0.18 13.82, -0.09 11.59 C-0.36 9.35, 0.51 6.74, 2.17 4.79 C3.84 2.83, 8.56 0.56, 9.92 -0.17 C11.28 -0.91, 10.24 0.11, 10.33 0.37 M12.36 0.68 C15.07 0.63, 18.35 1.41, 20.43 2.69 C22.5 3.97, 24.22 6.08, 24.82 8.38 C25.42 10.67, 25.32 14.3, 24.03 16.46 C22.75 18.63, 19.58 20.61, 17.11 21.34 C14.63 22.08, 11.62 21.74, 9.18 20.9 C6.75 20.06, 3.98 18.24, 2.49 16.32 C1 14.39, 0.07 11.57, 0.27 9.35 C0.46 7.13, 1.6 4.54, 3.64 3 C5.68 1.46, 11.09 0.61, 12.51 0.12 C13.92 -0.37, 12.32 -0.06, 12.13 0.07" stroke="#1971c2" stroke-width="2" fill="none"></path></g><g stroke-linecap="round" transform="translate(453.5135154218498 279.51851204388674) rotate(0 12.356139512634513 11.045639867355078)"><path d="M14.06 0.59 C16.65 0.75, 20.23 2.34, 21.99 3.97 C23.75 5.6, 24.63 7.98, 24.64 10.37 C24.65 12.77, 23.66 16.38, 22.07 18.37 C20.48 20.35, 17.63 21.9, 15.1 22.3 C12.58 22.69, 9.34 21.92, 6.92 20.75 C4.49 19.58, 1.67 17.57, 0.56 15.28 C-0.56 13, -0.71 9.35, 0.24 7.04 C1.19 4.72, 3.9 2.53, 6.24 1.39 C8.59 0.26, 12.92 0.46, 14.3 0.23 C15.67 -0.01, 14.52 -0.26, 14.51 -0.04 M12.62 -0.14 C15.03 -0.29, 19.11 0.89, 21.01 2.56 C22.91 4.22, 23.67 7.4, 24.02 9.84 C24.38 12.29, 24.58 15.33, 23.13 17.22 C21.68 19.12, 17.93 20.56, 15.32 21.21 C12.71 21.86, 9.82 22.03, 7.46 21.12 C5.1 20.21, 2.2 17.95, 1.13 15.75 C0.07 13.54, 0.49 10.2, 1.08 7.9 C1.66 5.59, 2.58 3.36, 4.67 1.94 C6.75 0.51, 12.12 -0.44, 13.57 -0.65 C15.01 -0.86, 13.49 0.27, 13.34 0.67" stroke="none" stroke-width="0" fill="#a5d8ff"></path><path d="M9.34 -0.09 C11.66 -0.86, 15.18 -0.44, 17.56 0.61 C19.94 1.67, 22.46 4.07, 23.6 6.25 C24.75 8.42, 25.19 11.35, 24.43 13.65 C23.68 15.94, 21.34 18.55, 19.08 20.01 C16.81 21.47, 13.46 22.57, 10.87 22.41 C8.27 22.24, 5.25 20.85, 3.51 19.01 C1.76 17.17, 0.64 13.77, 0.4 11.36 C0.16 8.96, 0.5 6.37, 2.08 4.56 C3.66 2.76, 8.49 1.3, 9.87 0.53 C11.25 -0.24, 10.32 -0.25, 10.36 -0.05 M13.74 0.19 C16.26 0.19, 19.01 1.93, 20.82 3.59 C22.62 5.26, 24.38 7.89, 24.58 10.17 C24.78 12.45, 23.55 15.47, 22.01 17.27 C20.48 19.08, 17.88 20.39, 15.39 21.02 C12.91 21.65, 9.51 21.94, 7.11 21.08 C4.71 20.22, 2.14 17.94, 1.02 15.84 C-0.11 13.74, -0.27 10.87, 0.37 8.46 C1 6.06, 2.71 2.91, 4.82 1.43 C6.94 -0.06, 11.71 -0.2, 13.06 -0.44 C14.41 -0.68, 12.91 -0.16, 12.92 -0.01" stroke="#1971c2" stroke-width="2" fill="none"></path></g><g stroke-linecap="round" transform="translate(496.0887923187951 278.8573165609665) rotate(0 12.356139512634513 11.045639867355078)"><path d="M11.15 0.45 C13.75 0.03, 17.08 0.74, 19.28 2.05 C21.47 3.35, 23.58 6.13, 24.32 8.27 C25.06 10.41, 24.87 12.78, 23.73 14.88 C22.6 16.98, 19.93 19.69, 17.52 20.89 C15.11 22.09, 11.68 22.55, 9.26 22.09 C6.84 21.64, 4.45 20.06, 2.98 18.17 C1.52 16.28, 0.33 13.21, 0.46 10.75 C0.59 8.29, 1.92 5.22, 3.77 3.4 C5.61 1.59, 10.07 0.41, 11.53 -0.14 C12.99 -0.7, 12.61 -0.09, 12.54 0.1 M9.53 -0.03 C12.02 -0.53, 15.66 0.08, 17.99 1.31 C20.31 2.54, 22.48 5.06, 23.49 7.34 C24.51 9.63, 24.78 12.92, 24.09 15.02 C23.41 17.12, 21.66 18.92, 19.36 19.96 C17.06 21.01, 12.85 21.52, 10.27 21.29 C7.7 21.07, 5.71 20.32, 3.9 18.63 C2.08 16.93, -0.41 13.49, -0.61 11.1 C-0.81 8.72, 1.06 6.17, 2.67 4.31 C4.28 2.45, 7.79 0.48, 9.05 -0.05 C10.32 -0.59, 10.08 0.91, 10.27 1.1" stroke="none" stroke-width="0" fill="#a5d8ff"></path><path d="M10.67 0.04 C13.18 -0.35, 16.67 0.94, 18.86 2.16 C21.05 3.38, 23.01 5.15, 23.82 7.36 C24.63 9.57, 24.72 13.17, 23.7 15.42 C22.67 17.68, 19.95 19.86, 17.67 20.88 C15.4 21.9, 12.47 22.08, 10.04 21.52 C7.6 20.95, 4.67 19.34, 3.04 17.48 C1.4 15.63, 0.23 12.75, 0.21 10.39 C0.19 8.02, 1.03 5.03, 2.91 3.29 C4.78 1.56, 9.95 0.51, 11.46 -0.03 C12.98 -0.58, 11.96 -0.19, 11.99 0.04 M12.15 -0.38 C14.63 -0.6, 18.41 0.73, 20.44 2.17 C22.47 3.61, 23.87 6.02, 24.33 8.26 C24.79 10.49, 24.36 13.34, 23.2 15.56 C22.03 17.79, 19.7 20.69, 17.35 21.6 C14.99 22.51, 11.52 21.71, 9.04 21.01 C6.56 20.31, 3.94 19.23, 2.46 17.39 C0.98 15.56, -0.17 12.33, 0.16 10.02 C0.48 7.71, 2.4 5.12, 4.39 3.52 C6.38 1.92, 10.82 0.88, 12.09 0.44 C13.36 -0.01, 11.96 0.86, 12.01 0.85" stroke="#1971c2" stroke-width="2" fill="none"></path></g><g stroke-linecap="round" transform="translate(537.1663553354214 277.98731027406575) rotate(0 12.356139512634513 11.045639867355078)"><path d="M14.6 0.38 C17.22 0.58, 20.36 1.84, 22.03 3.53 C23.71 5.21, 24.68 8.15, 24.65 10.48 C24.63 12.82, 23.55 15.62, 21.9 17.55 C20.25 19.48, 17.36 21.52, 14.76 22.08 C12.16 22.64, 8.56 22.07, 6.29 20.91 C4.03 19.74, 2.06 17.32, 1.18 15.1 C0.3 12.87, 0.18 9.79, 1.01 7.55 C1.84 5.3, 3.94 2.81, 6.17 1.63 C8.41 0.46, 12.9 0.6, 14.43 0.48 C15.96 0.37, 15.37 0.75, 15.37 0.96 M9.64 -0.01 C11.97 -0.74, 15.7 -0.4, 18.04 0.78 C20.38 1.96, 22.67 4.76, 23.7 7.09 C24.73 9.41, 25.01 12.4, 24.21 14.73 C23.41 17.07, 21.24 19.81, 18.91 21.08 C16.58 22.35, 12.99 22.84, 10.21 22.35 C7.44 21.86, 3.89 19.88, 2.25 18.12 C0.6 16.35, 0.18 14.14, 0.35 11.78 C0.52 9.42, 1.69 5.9, 3.26 3.95 C4.84 2.01, 8.76 0.65, 9.8 0.1 C10.83 -0.45, 9.39 0.5, 9.46 0.66" stroke="none" stroke-width="0" fill="#a5d8ff"></path><path d="M14.06 -0.35 C16.46 -0.26, 19.34 1.78, 21.06 3.66 C22.78 5.54, 24.11 8.49, 24.36 10.93 C24.61 13.37, 24.08 16.43, 22.58 18.3 C21.09 20.16, 17.98 21.71, 15.38 22.11 C12.79 22.51, 9.44 21.86, 7.03 20.68 C4.63 19.5, 1.95 17.22, 0.94 15.02 C-0.06 12.83, 0.25 9.77, 0.98 7.52 C1.72 5.28, 3.12 2.83, 5.35 1.56 C7.59 0.28, 12.78 0.05, 14.39 -0.14 C16.01 -0.32, 15.06 0.22, 15.06 0.45 M12.47 0.59 C15.11 0.33, 18.88 0.9, 20.83 2.23 C22.77 3.56, 23.67 6.12, 24.15 8.55 C24.62 10.99, 25.07 14.75, 23.69 16.84 C22.3 18.93, 18.44 20.34, 15.84 21.1 C13.23 21.87, 10.57 22.25, 8.08 21.42 C5.59 20.6, 2.12 18.13, 0.89 16.16 C-0.34 14.2, 0.04 11.96, 0.68 9.65 C1.32 7.33, 2.72 3.95, 4.71 2.27 C6.7 0.59, 11.2 0.02, 12.61 -0.45 C14.03 -0.91, 13.3 -0.71, 13.22 -0.53" stroke="#1971c2" stroke-width="2" fill="none"></path></g><g stroke-linecap="round" transform="translate(576.7462044717282 277.14046529633623) rotate(0 12.356139512634513 11.045639867355078)"><path d="M15.51 -0.02 C18.05 0.37, 20.46 2.89, 22.01 4.77 C23.57 6.66, 24.93 9.04, 24.83 11.28 C24.73 13.51, 23.18 16.41, 21.42 18.19 C19.67 19.97, 16.97 21.63, 14.3 21.94 C11.64 22.26, 7.7 21.42, 5.43 20.06 C3.16 18.71, 1.39 16.05, 0.69 13.84 C-0.01 11.63, 0.27 8.89, 1.23 6.8 C2.19 4.71, 4.06 2.3, 6.44 1.3 C8.82 0.3, 13.98 0.94, 15.53 0.8 C17.07 0.66, 15.71 0.44, 15.69 0.46 M13.93 -0.03 C16.45 -0.03, 18.59 1.54, 20.47 3.34 C22.35 5.14, 24.92 8.46, 25.19 10.76 C25.46 13.06, 23.73 15.3, 22.09 17.17 C20.44 19.03, 17.92 21.19, 15.32 21.94 C12.73 22.69, 8.98 22.7, 6.53 21.68 C4.07 20.66, 1.58 18.08, 0.61 15.84 C-0.36 13.6, -0.06 10.62, 0.71 8.25 C1.48 5.88, 3.11 2.9, 5.24 1.64 C7.37 0.38, 12.21 0.9, 13.49 0.67 C14.77 0.44, 12.88 0.31, 12.92 0.27" stroke="none" stroke-width="0" fill="#a5d8ff"></path><path d="M14.6 0.38 C17.22 0.58, 20.36 1.84, 22.03 3.53 C23.71 5.21, 24.68 8.15, 24.65 10.48 C24.63 12.82, 23.55 15.62, 21.9 17.55 C20.25 19.48, 17.36 21.52, 14.76 22.08 C12.16 22.64, 8.56 22.07, 6.29 20.91 C4.03 19.74, 2.06 17.32, 1.18 15.1 C0.3 12.87, 0.18 9.79, 1.01 7.55 C1.84 5.3, 3.94 2.81, 6.17 1.63 C8.41 0.46, 12.9 0.6, 14.43 0.48 C15.96 0.37, 15.37 0.75, 15.37 0.96 M9.64 -0.01 C11.97 -0.74, 15.7 -0.4, 18.04 0.78 C20.38 1.96, 22.67 4.76, 23.7 7.09 C24.73 9.41, 25.01 12.4, 24.21 14.73 C23.41 17.07, 21.24 19.81, 18.91 21.08 C16.58 22.35, 12.99 22.84, 10.21 22.35 C7.44 21.86, 3.89 19.88, 2.25 18.12 C0.6 16.35, 0.18 14.14, 0.35 11.78 C0.52 9.42, 1.69 5.9, 3.26 3.95 C4.84 2.01, 8.76 0.65, 9.8 0.1 C10.83 -0.45, 9.39 0.5, 9.46 0.66" stroke="#1971c2" stroke-width="2" fill="none"></path></g><g stroke-linecap="round" transform="translate(614.079482787556 277.7797535443404) rotate(0 12.356139512634513 11.045639867355078)"><path d="M15.1 0.49 C17.63 0.68, 20.06 2.12, 21.69 3.87 C23.33 5.61, 24.88 8.55, 24.92 10.97 C24.96 13.39, 23.67 16.6, 21.94 18.4 C20.21 20.2, 17.25 21.49, 14.55 21.77 C11.84 22.06, 7.96 21.32, 5.71 20.11 C3.47 18.91, 1.82 16.76, 1.06 14.56 C0.3 12.37, 0.25 9.14, 1.16 6.93 C2.07 4.72, 4.15 2.4, 6.53 1.32 C8.91 0.24, 13.9 0.62, 15.43 0.45 C16.96 0.28, 15.8 0.23, 15.72 0.31 M14.37 0.62 C16.92 0.75, 19.97 2.38, 21.68 4.1 C23.39 5.83, 24.43 8.82, 24.62 10.98 C24.81 13.14, 24.49 15.21, 22.84 17.05 C21.18 18.88, 17.32 21.39, 14.69 21.99 C12.07 22.6, 9.25 21.64, 7.09 20.69 C4.93 19.74, 2.81 18.36, 1.72 16.29 C0.63 14.22, -0.14 10.68, 0.56 8.28 C1.25 5.89, 3.64 3.42, 5.87 1.94 C8.1 0.46, 12.52 -0.26, 13.91 -0.61 C15.3 -0.96, 14.26 -0.46, 14.2 -0.14" stroke="none" stroke-width="0" fill="#a5d8ff"></path><path d="M12.61 0.46 C15.17 0.3, 18.38 1.11, 20.42 2.49 C22.46 3.88, 24.4 6.5, 24.85 8.79 C25.31 11.07, 24.52 14.06, 23.17 16.22 C21.82 18.38, 19.3 20.97, 16.76 21.76 C14.22 22.54, 10.46 21.76, 7.94 20.93 C5.42 20.11, 2.85 18.83, 1.63 16.8 C0.41 14.77, 0.17 11.17, 0.63 8.76 C1.08 6.36, 2.28 3.91, 4.35 2.39 C6.42 0.87, 11.47 0.06, 13.03 -0.36 C14.59 -0.77, 13.71 -0.37, 13.69 -0.1 M12.84 0.63 C15.29 0.64, 18.1 1.51, 20.11 2.88 C22.13 4.25, 24.45 6.49, 24.93 8.86 C25.41 11.22, 24.58 14.96, 23 17.06 C21.42 19.17, 17.91 20.84, 15.47 21.48 C13.02 22.12, 10.61 21.88, 8.35 20.9 C6.08 19.92, 3.19 17.59, 1.88 15.6 C0.57 13.62, -0.07 11.24, 0.49 9.01 C1.05 6.79, 3.08 3.72, 5.22 2.23 C7.36 0.75, 12.07 0.51, 13.31 0.12 C14.55 -0.27, 12.83 -0.35, 12.66 -0.09" stroke="#1971c2" stroke-width="2" fill="none"></path></g><g stroke-linecap="round" transform="translate(920.8323253438501 278.5235397756097) rotate(0 83.25956724677997 78.00000000000003)"><path d="M51.59 6.26 C61.23 1.35, 74.97 -0.31, 86.3 -0.11 C97.63 0.09, 109.41 2.95, 119.59 7.45 C129.76 11.96, 140.22 18.68, 147.33 26.92 C154.44 35.16, 159.18 46.68, 162.26 56.88 C165.34 67.08, 167.25 77.69, 165.79 88.13 C164.33 98.57, 159.43 110.55, 153.51 119.52 C147.58 128.49, 139.36 136.15, 130.22 141.93 C121.09 147.71, 109.75 152.05, 98.68 154.19 C87.61 156.33, 74.79 157.27, 63.79 154.76 C52.8 152.25, 41.54 145.79, 32.7 139.12 C23.86 132.45, 16.28 123.98, 10.76 114.73 C5.24 105.48, 0.47 93.98, -0.44 83.63 C-1.34 73.29, 1.32 62.68, 5.31 52.68 C9.3 42.67, 14.92 31.82, 23.5 23.62 C32.08 15.42, 50.58 6.85, 56.81 3.47 C63.04 0.09, 60.44 2.14, 60.89 3.34 M66.44 1.32 C76.36 -2.12, 88.98 -1.18, 99.81 1.35 C110.63 3.88, 122.09 9.99, 131.4 16.51 C140.72 23.04, 150.06 31.45, 155.69 40.48 C161.32 49.52, 164.2 60.51, 165.19 70.71 C166.19 80.92, 164.88 91.75, 161.67 101.69 C158.46 111.63, 153.5 122.37, 145.93 130.33 C138.36 138.29, 127.02 145.16, 116.24 149.46 C105.46 153.76, 92.51 156.43, 81.27 156.15 C70.02 155.87, 58.97 152.18, 48.77 147.78 C38.56 143.38, 27.76 137.41, 20.05 129.73 C12.33 122.04, 5.63 111.54, 2.48 101.68 C-0.67 91.81, -0.24 80.96, 1.15 70.52 C2.55 60.08, 5.13 48.22, 10.85 39.04 C16.56 29.86, 26.3 21.63, 35.46 15.43 C44.62 9.24, 60.79 4, 65.82 1.88 C70.84 -0.25, 65.11 1.36, 65.58 2.67" stroke="none" stroke-width="0" fill="#a5d8ff"></path><path d="M122.46 9.86 C132.45 13.61, 141.97 22.31, 148.84 30.66 C155.71 39.01, 161.03 49.86, 163.7 59.96 C166.37 70.07, 166.75 80.9, 164.86 91.28 C162.97 101.67, 158.6 113.36, 152.36 122.26 C146.12 131.17, 136.97 139.34, 127.45 144.69 C117.92 150.04, 106.31 153.02, 95.22 154.37 C84.13 155.72, 71.8 155.45, 60.89 152.81 C49.97 150.17, 38.36 145.33, 29.76 138.53 C21.15 131.74, 14.05 121.74, 9.25 112.04 C4.46 102.34, 1.34 90.81, 0.96 80.32 C0.59 69.84, 3.04 59.02, 7.02 49.12 C11 39.23, 16.97 28.28, 24.86 20.96 C32.75 13.65, 43.59 8.66, 54.37 5.22 C65.14 1.78, 76.14 -1.79, 89.51 0.3 C102.88 2.39, 125.55 13.4, 134.58 17.74 C143.6 22.09, 144.57 25.53, 143.65 26.36 M90.41 -0.8 C101.24 -1.44, 112.67 4.02, 122.26 9.09 C131.85 14.16, 140.88 21.09, 147.96 29.64 C155.03 38.18, 161.82 49.79, 164.7 60.34 C167.58 70.89, 167.39 82.54, 165.24 92.94 C163.09 103.35, 157.9 114.06, 151.81 122.78 C145.71 131.5, 138.27 139.85, 128.67 145.28 C119.08 150.7, 105.71 154.13, 94.24 155.32 C82.76 156.52, 70.67 155.56, 59.82 152.46 C48.97 149.35, 37.81 143.28, 29.14 136.7 C20.48 130.12, 12.53 122.4, 7.85 112.98 C3.16 103.57, 1.48 90.71, 1.04 80.21 C0.59 69.71, 1.29 59.48, 5.17 49.96 C9.04 40.45, 16.19 30.55, 24.28 23.1 C32.36 15.64, 43.05 8.84, 53.68 5.25 C64.3 1.67, 81.92 2.23, 88.03 1.58 C94.13 0.92, 90.15 0.08, 90.31 1.34" stroke="#1971c2" stroke-width="2" fill="none"></path></g><g transform="translate(951.0505192417746 336.36921084305897) rotate(0 53.16796875 20)"><text x="53.16796875" y="0" font-family="Virgil, Segoe UI Emoji" font-size="16px" fill="#1971c2" text-anchor="middle" style="white-space: pre;" direction="ltr" dominant-baseline="text-before-edge">Nova Versão </text><text x="53.16796875" y="20" font-family="Virgil, Segoe UI Emoji" font-size="16px" fill="#1971c2" text-anchor="middle" style="white-space: pre;" direction="ltr" dominant-baseline="text-before-edge">informal</text></g><g stroke-linecap="round" transform="translate(1234.62141884233 276.18994830963095) rotate(0 83.68232068557006 78.00000000000003)"><path d="M113.81 5.67 C124.15 8.09, 135.25 15.13, 143.37 22.76 C151.49 30.4, 158.64 41.49, 162.53 51.49 C166.41 61.48, 167.55 72.26, 166.68 82.74 C165.81 93.23, 162.56 104.98, 157.29 114.39 C152.01 123.81, 143.82 132.81, 135.03 139.23 C126.23 145.65, 115.25 150.17, 104.52 152.91 C93.79 155.65, 81.96 157.19, 70.65 155.67 C59.34 154.16, 46.09 149.64, 36.67 143.82 C27.24 137.99, 20.08 129.78, 14.11 120.72 C8.14 111.66, 2.64 100.06, 0.86 89.47 C-0.93 78.89, 0.3 67.26, 3.41 57.22 C6.51 47.17, 12.2 37.27, 19.49 29.21 C26.79 21.15, 37.04 13.75, 47.16 8.87 C57.29 3.99, 68.29 0.29, 80.24 -0.08 C92.2 -0.45, 111.69 4.84, 118.89 6.66 C126.1 8.47, 123.99 9.63, 123.48 10.8 M97.08 0.18 C107.69 0.17, 119.41 5.38, 128.9 11.23 C138.38 17.09, 147.82 26.02, 153.96 35.31 C160.1 44.59, 164.08 56.33, 165.75 66.94 C167.42 77.55, 167.02 88.81, 164 98.98 C160.97 109.16, 154.59 119.87, 147.59 128 C140.59 136.13, 131.88 143.34, 122 147.76 C112.12 152.19, 99.83 154.29, 88.32 154.56 C76.8 154.83, 63.47 152.87, 52.92 149.37 C42.37 145.86, 32.99 140.57, 25.01 133.55 C17.02 126.53, 9.14 117.28, 5.02 107.24 C0.91 97.19, -0.19 83.83, 0.33 73.27 C0.84 62.72, 2.87 53.23, 8.1 43.92 C13.34 34.6, 22.82 24.3, 31.72 17.38 C40.61 10.46, 50.46 5.13, 61.47 2.38 C72.48 -0.36, 91.89 0.96, 97.78 0.91 C103.68 0.87, 97.07 1.01, 96.86 2.12" stroke="none" stroke-width="0" fill="#a5d8ff"></path><path d="M83.85 -0.74 C94.67 -1.75, 108.23 3.11, 118.44 7.5 C128.65 11.89, 137.71 18.08, 145.12 25.61 C152.53 33.14, 159.37 42.61, 162.91 52.68 C166.45 62.76, 167.32 75.31, 166.37 86.04 C165.41 96.77, 162.7 107.87, 157.17 117.05 C151.65 126.22, 142.53 135.02, 133.21 141.09 C123.89 147.17, 112.24 151.14, 101.24 153.5 C90.25 155.86, 78.37 157.44, 67.23 155.26 C56.1 153.08, 43.75 146.78, 34.4 140.42 C25.06 134.06, 16.7 126.16, 11.17 117.1 C5.63 108.04, 2.44 96.41, 1.2 86.08 C-0.04 75.75, 0.23 64.96, 3.74 55.11 C7.24 45.25, 14.61 34.89, 22.24 26.95 C29.86 19.01, 38.23 11.96, 49.5 7.45 C60.77 2.95, 82 0.78, 89.85 -0.09 C97.7 -0.96, 96.64 1.03, 96.61 2.22 M109.38 2.79 C120.28 4.21, 131.06 10.58, 139.67 17.84 C148.27 25.09, 156.18 36.26, 161.01 46.31 C165.84 56.36, 168.6 67.88, 168.63 78.12 C168.66 88.37, 166.04 98.49, 161.19 107.77 C156.34 117.05, 147.91 126.39, 139.53 133.8 C131.16 141.2, 121.69 148.55, 110.96 152.23 C100.24 155.91, 86.53 157.03, 75.17 155.89 C63.81 154.74, 52.34 150.57, 42.82 145.37 C33.3 140.17, 24.86 132.84, 18.04 124.69 C11.22 116.53, 4.54 106.77, 1.9 96.45 C-0.75 86.13, -0.24 73.53, 2.16 62.76 C4.55 51.98, 9.65 40.2, 16.29 31.81 C22.94 23.42, 32.54 17.79, 42.01 12.44 C51.48 7.09, 62.16 1.32, 73.13 -0.29 C84.11 -1.9, 101.99 1.93, 107.87 2.77 C113.74 3.61, 108.51 3.47, 108.39 4.76" stroke="#1971c2" stroke-width="2" fill="none"></path></g><g transform="translate(1264.5714513234798 316.5356193770803) rotate(0 53.55995178222656 37.5)"><text x="53.55995178222656" y="0" font-family="Virgil, Segoe UI Emoji" font-size="20px" fill="#1971c2" text-anchor="middle" style="white-space: pre;" direction="ltr" dominant-baseline="text-before-edge">Versão </text><text x="53.55995178222656" y="25" font-family="Virgil, Segoe UI Emoji" font-size="20px" fill="#1971c2" text-anchor="middle" style="white-space: pre;" direction="ltr" dominant-baseline="text-before-edge">oficial, com</text><text x="53.55995178222656" y="50" font-family="Virgil, Segoe UI Emoji" font-size="20px" fill="#1971c2" text-anchor="middle" style="white-space: pre;" direction="ltr" dominant-baseline="text-before-edge">um id</text></g><g stroke-linecap="round" transform="translate(1549.4805867021228 273.5494462276396) rotate(0 83.68232068557018 78.00000000000003)"><path d="M66.04 1.04 C76.26 -2.11, 89.58 -0.98, 100.78 1.27 C111.97 3.53, 123.82 8.04, 133.2 14.55 C142.57 21.06, 151.35 30.94, 157.03 40.34 C162.7 49.74, 166.12 60.46, 167.25 70.95 C168.38 81.44, 167.53 93.31, 163.8 103.26 C160.08 113.21, 152.55 123.03, 144.91 130.65 C137.27 138.26, 128.11 144.67, 117.95 148.94 C107.78 153.21, 95.3 156.32, 83.9 156.26 C72.5 156.2, 59.96 153.14, 49.56 148.59 C39.15 144.05, 29.06 136.69, 21.45 128.98 C13.83 121.26, 7.27 112.17, 3.86 102.28 C0.45 92.39, -0.28 80.25, 0.98 69.64 C2.23 59.03, 5.73 47.68, 11.39 38.61 C17.06 29.55, 24.66 21.5, 34.99 15.23 C45.31 8.95, 65.59 3.15, 73.35 0.97 C81.11 -1.21, 81.27 0.95, 81.56 2.13 M62.32 2.45 C72.48 -1.17, 86.1 0.14, 97.33 1.99 C108.56 3.84, 120.17 7.82, 129.7 13.55 C139.23 19.27, 148.17 27.37, 154.51 36.32 C160.85 45.26, 165.89 57.09, 167.75 67.22 C169.6 77.35, 168.68 86.95, 165.62 97.09 C162.55 107.22, 156.85 119.39, 149.36 128.06 C141.88 136.72, 130.79 144.38, 120.72 149.07 C110.65 153.76, 100.15 155.74, 88.94 156.19 C77.74 156.64, 64.06 155.44, 53.48 151.76 C42.91 148.08, 33.69 141.92, 25.49 134.11 C17.3 126.3, 8.72 115.07, 4.31 104.91 C-0.1 94.75, -1.66 83.84, -0.95 73.16 C-0.24 62.49, 3.12 49.96, 8.59 40.86 C14.06 31.75, 22.69 25.03, 31.87 18.52 C41.06 12.01, 58.58 4, 63.7 1.79 C68.81 -0.43, 62.23 3.96, 62.55 5.22" stroke="none" stroke-width="0" fill="#a5d8ff"></path><path d="M66.64 1.99 C77.18 -1.17, 90.43 -0.88, 101.49 1.4 C112.56 3.68, 124.01 9.31, 133.05 15.66 C142.09 22.02, 150.04 30.72, 155.74 39.55 C161.44 48.39, 165.85 58.4, 167.26 68.67 C168.68 78.94, 167.86 91.01, 164.24 101.17 C160.63 111.34, 153.39 121.66, 145.57 129.67 C137.75 137.67, 127.71 144.96, 117.31 149.21 C106.92 153.45, 94.28 155.22, 83.18 155.11 C72.07 155.01, 61.02 152.78, 50.67 148.56 C40.33 144.33, 28.96 137.39, 21.11 129.76 C13.25 122.13, 6.9 112.74, 3.55 102.78 C0.19 92.82, -0.22 80.43, 1 69.99 C2.22 59.56, 5.39 49.41, 10.86 40.19 C16.34 30.97, 22.39 21.43, 33.84 14.66 C45.29 7.89, 69.48 1.46, 79.58 -0.45 C89.68 -2.36, 94.35 1.8, 94.43 3.21 M59.17 4.57 C69.04 0.5, 81.35 0.76, 92.54 1.83 C103.74 2.9, 116.53 5.85, 126.34 10.99 C136.14 16.12, 144.88 24.13, 151.38 32.64 C157.88 41.15, 162.91 51.78, 165.34 62.05 C167.77 72.33, 168.52 84.03, 165.98 94.3 C163.44 104.56, 157.09 115.02, 150.1 123.63 C143.1 132.25, 133.58 140.7, 124 145.98 C114.42 151.27, 103.76 154.35, 92.62 155.32 C81.49 156.3, 68 155.27, 57.19 151.82 C46.38 148.37, 36.35 141.71, 27.78 134.62 C19.21 127.53, 10.49 118.92, 5.77 109.28 C1.04 99.63, -0.75 87.27, -0.58 76.74 C-0.41 66.2, 1.86 55.52, 6.8 46.06 C11.74 36.6, 20.67 26.92, 29.05 19.98 C37.44 13.04, 52.33 6.91, 57.1 4.43 C61.88 1.94, 57.18 3.98, 57.7 5.09" stroke="#1971c2" stroke-width="2" fill="none"></path></g><g transform="translate(1581.9906091124717 313.8951172950889) rotate(0 50.999961853027344 37.50000000000003)"><text x="50.999961853027344" y="0" font-family="Virgil, Segoe UI Emoji" font-size="20px" fill="#1971c2" text-anchor="middle" style="white-space: pre;" direction="ltr" dominant-baseline="text-before-edge">Versão </text><text x="50.999961853027344" y="25" font-family="Virgil, Segoe UI Emoji" font-size="20px" fill="#1971c2" text-anchor="middle" style="white-space: pre;" direction="ltr" dominant-baseline="text-before-edge">adicionada</text><text x="50.999961853027344" y="50" font-family="Virgil, Segoe UI Emoji" font-size="20px" fill="#1971c2" text-anchor="middle" style="white-space: pre;" direction="ltr" dominant-baseline="text-before-edge">à nuvem</text></g><g stroke-linecap="round" transform="translate(651.0383326333041 276.5468994419454) rotate(0 12.356139512634513 11.045639867355078)"><path d="M13.67 0.51 C16.13 0.66, 19.43 2.09, 21.29 3.72 C23.14 5.35, 24.68 7.97, 24.8 10.28 C24.93 12.6, 23.61 15.64, 22.03 17.61 C20.45 19.58, 17.97 21.61, 15.32 22.13 C12.66 22.65, 8.58 21.83, 6.11 20.74 C3.64 19.64, 1.43 17.75, 0.5 15.55 C-0.44 13.35, -0.41 9.77, 0.5 7.53 C1.41 5.3, 3.68 3.3, 5.97 2.15 C8.27 1.01, 12.73 1.01, 14.27 0.68 C15.8 0.36, 15.18 0.09, 15.17 0.18 M14.96 0.51 C17.41 0.87, 20.6 2.98, 22.22 4.69 C23.84 6.39, 24.84 8.61, 24.7 10.73 C24.56 12.86, 23.05 15.65, 21.37 17.44 C19.69 19.24, 17.11 20.95, 14.62 21.5 C12.13 22.04, 8.68 21.78, 6.42 20.7 C4.16 19.62, 2.11 17.14, 1.05 15.01 C-0.01 12.87, -0.66 10.26, 0.07 7.91 C0.81 5.55, 2.99 2.04, 5.48 0.85 C7.96 -0.34, 13.53 0.84, 14.97 0.79 C16.42 0.73, 14.15 0.37, 14.15 0.5" stroke="none" stroke-width="0" fill="#a5d8ff"></path><path d="M14.16 -0.01 C16.64 0.05, 19.51 1.5, 21.33 3.29 C23.15 5.08, 24.9 8.24, 25.09 10.73 C25.29 13.22, 24.24 16.31, 22.48 18.22 C20.73 20.13, 17.15 21.73, 14.57 22.21 C12 22.69, 9.35 22.3, 7.03 21.1 C4.72 19.9, 1.73 17.3, 0.69 15.02 C-0.34 12.75, -0.07 9.64, 0.82 7.44 C1.7 5.25, 3.66 3.08, 6 1.85 C8.35 0.61, 13.4 0.33, 14.9 0.04 C16.39 -0.25, 14.97 -0.08, 14.96 0.11 M14.51 0.34 C17.1 0.5, 20.52 1.92, 22.12 3.7 C23.72 5.49, 24.3 8.59, 24.11 11.07 C23.93 13.55, 22.62 16.67, 21.03 18.58 C19.44 20.49, 16.94 22.1, 14.56 22.52 C12.19 22.94, 8.99 22.28, 6.75 21.1 C4.51 19.91, 2.13 17.62, 1.13 15.41 C0.13 13.2, -0.2 10.25, 0.75 7.83 C1.69 5.42, 4.6 2.15, 6.81 0.92 C9.02 -0.32, 12.69 0.56, 14.02 0.43 C15.34 0.29, 14.59 -0.14, 14.77 0.12" stroke="#1971c2" stroke-width="2" fill="none"></path></g><g stroke-linecap="round"><g transform="translate(430.40851896905554 289.56045110751285) rotate(0 136.66639157913914 0)"><path d="M-1.12 -0.03 C44.61 -0.11, 228.23 -0.17, 273.91 -0.12 M0.5 -1.1 C46.16 -1.01, 228.01 0.88, 273.27 1.35" stroke="#1971c2" stroke-width="2" fill="none"></path></g><g transform="translate(430.40851896905554 289.56045110751285) rotate(0 136.66639157913914 0)"><path d="M249.69 9.66 C255.79 8.67, 261.83 4.94, 273.27 1.35 M249.69 9.66 C257.24 7.34, 265.78 5.12, 273.27 1.35" stroke="#1971c2" stroke-width="2" fill="none"></path></g><g transform="translate(430.40851896905554 289.56045110751285) rotate(0 136.66639157913914 0)"><path d="M249.86 -7.44 C255.97 -3.95, 261.96 -3.19, 273.27 1.35 M249.86 -7.44 C257.37 -4.25, 265.85 -0.96, 273.27 1.35" stroke="#1971c2" stroke-width="2" fill="none"></path></g></g><mask></mask><g transform="translate(357.0205388334083 298.172305919349) rotate(0 26.009979248046875 12.5)"><text x="0" y="0" font-family="Virgil, Segoe UI Emoji" font-size="20px" fill="#1971c2" text-anchor="start" style="white-space: pre;" direction="ltr" dominant-baseline="text-before-edge">Início</text></g><g stroke-linecap="round"><g transform="translate(428.1619481485767 298.5467343894288) rotate(0 12.168925277594553 12.543353747674416)"><path d="M0.15 -0.25 C4.46 3.98, 20.65 21.54, 24.68 25.6 M-1.23 -1.43 C3.05 2.42, 19.79 19.35, 23.91 23.75" stroke="#1971c2" stroke-width="2" fill="none"></path></g><g transform="translate(428.1619481485767 298.5467343894288) rotate(0 12.168925277594553 12.543353747674416)"><path d="M8.2 16.11 C11.04 18.14, 15.34 19.15, 23.91 23.75 M8.2 16.11 C11.9 18.21, 15.97 19.04, 23.91 23.75" stroke="#1971c2" stroke-width="2" fill="none"></path></g><g transform="translate(428.1619481485767 298.5467343894288) rotate(0 12.168925277594553 12.543353747674416)"><path d="M16.78 7.8 C17.9 11.52, 20.46 14.22, 23.91 23.75 M16.78 7.8 C18.6 11.8, 20.76 14.47, 23.91 23.75" stroke="#1971c2" stroke-width="2" fill="none"></path></g></g><mask></mask><g stroke-linecap="round"><g transform="translate(475.3399353786357 326.62886964541633) rotate(0 12.168925277594553 -12.917782217754251)"><path d="M0.18 0.43 C4.33 -3.75, 20.63 -21.02, 24.57 -25.5 M-1.19 -0.4 C2.85 -4.92, 19.75 -23.27, 23.75 -27.45" stroke="#1971c2" stroke-width="2" fill="none"></path></g><g transform="translate(475.3399353786357 326.62886964541633) rotate(0 12.168925277594553 -12.917782217754251)"><path d="M16.8 -11.12 C19.38 -15.23, 21.13 -20.77, 23.75 -27.45 M16.8 -11.12 C19.08 -14.34, 20.62 -19.91, 23.75 -27.45" stroke="#1971c2" stroke-width="2" fill="none"></path></g><g transform="translate(475.3399353786357 326.62886964541633) rotate(0 12.168925277594553 -12.917782217754251)"><path d="M7.93 -19.41 C12.9 -21.27, 17.06 -24.56, 23.75 -27.45 M7.93 -19.41 C12.39 -20.61, 16.1 -24.14, 23.75 -27.45" stroke="#1971c2" stroke-width="2" fill="none"></path></g></g><mask></mask><g stroke-linecap="round" transform="translate(20.46454722119404 488.88598565228034) rotate(0 151.7205265455027 30.057840164675042)"><path d="M15.03 0 C96.07 0.68, 173.33 4.37, 288.41 0 C297.65 -3.37, 300.2 2.24, 303.44 15.03 C303.45 29.36, 305.5 39.7, 303.44 45.09 C301.2 52.02, 301.35 60.37, 288.41 60.12 C201.44 58.94, 113.95 55.62, 15.03 60.12 C4.41 61.52, 0.57 57.25, 0 45.09 C0.58 36.46, 0.55 25.75, 0 15.03 C2.75 5.18, 3.85 -0.75, 15.03 0" stroke="none" stroke-width="0" fill="#a5d8ff"></path><path d="M15.03 0 C96.06 2.63, 178.53 0.95, 288.41 0 M15.03 0 C77.12 1.76, 139.84 1.18, 288.41 0 M288.41 0 C298.89 -0.64, 302.05 3.09, 303.44 15.03 M288.41 0 C296.86 -0.77, 304.32 5.87, 303.44 15.03 M303.44 15.03 C303.64 24.48, 304.85 34, 303.44 45.09 M303.44 15.03 C303.88 23.98, 302.24 34.57, 303.44 45.09 M303.44 45.09 C305.19 56.67, 299.27 62.09, 288.41 60.12 M303.44 45.09 C303.09 57.4, 297.28 60.18, 288.41 60.12 M288.41 60.12 C200.67 57.31, 115.44 57.86, 15.03 60.12 M288.41 60.12 C203.45 61.31, 119.55 61.5, 15.03 60.12 M15.03 60.12 C4.21 61.86, 0.48 55.06, 0 45.09 M15.03 60.12 C3.72 61.37, 0.08 55, 0 45.09 M0 45.09 C-0.14 35.15, -0.48 25.52, 0 15.03 M0 45.09 C1.2 35.59, 1.14 23.89, 0 15.03 M0 15.03 C0.55 3.99, 4.08 0.48, 15.03 0 M0 15.03 C1.23 6.17, 6.93 -1.02, 15.03 0" stroke="#1971c2" stroke-width="2" fill="none"></path></g><g transform="translate(44.18516531943112 493.94382581695544) rotate(0 127.99990844726562 25)"><text x="127.99990844726562" y="0" font-family="Virgil, Segoe UI Emoji" font-size="20px" fill="#1971c2" text-anchor="middle" style="white-space: pre;" direction="ltr" dominant-baseline="text-before-edge">A configuração do git é </text><text x="127.99990844726562" y="25" font-family="Virgil, Segoe UI Emoji" font-size="20px" fill="#1971c2" text-anchor="middle" style="white-space: pre;" direction="ltr" dominant-baseline="text-before-edge">salva em um arquivo local</text></g><g stroke-linecap="round" transform="translate(820.2843358184026 185.80263090223372) rotate(0 55.08455399035529 15.031169076809448)"><path d="M7.52 0 C43.98 -3.63, 73.81 -3.59, 102.65 0 C105.13 -0.84, 108.24 1.81, 110.17 7.52 C112.35 13.41, 108.58 14.12, 110.17 22.55 C112.74 25.45, 104.39 32.04, 102.65 30.06 C64.82 31.49, 29.19 32.05, 7.52 30.06 C5.82 33.23, -3.19 29.5, 0 22.55 C0.33 17.19, 0.96 17.53, 0 7.52 C3.44 0.85, 4.31 3.58, 7.52 0" stroke="none" stroke-width="0" fill="#a5d8ff"></path><path d="M7.52 0 C35.72 -0.04, 60.68 -2.04, 102.65 0 M7.52 0 C42.09 -1.56, 77.72 -1.78, 102.65 0 M102.65 0 C108.18 -1.68, 110.88 1.33, 110.17 7.52 M102.65 0 C106.48 -1.58, 111.51 0.63, 110.17 7.52 M110.17 7.52 C110.09 13.96, 110.86 18.69, 110.17 22.55 M110.17 7.52 C110.17 12.33, 110 17.2, 110.17 22.55 M110.17 22.55 C108.49 26.12, 108.06 28.41, 102.65 30.06 M110.17 22.55 C110.63 25.72, 107.72 30.69, 102.65 30.06 M102.65 30.06 C81.58 28.69, 61.28 30.7, 7.52 30.06 M102.65 30.06 C77.04 30.31, 52.75 29.9, 7.52 30.06 M7.52 30.06 C1.76 29.91, 1.58 28.38, 0 22.55 M7.52 30.06 C4.42 27.87, -1.14 28.32, 0 22.55 M0 22.55 C1.12 18.67, -0.23 13.99, 0 7.52 M0 22.55 C-0.08 19.24, 0.48 15.25, 0 7.52 M0 7.52 C0.04 4.07, 0.81 1.32, 7.52 0 M0 7.52 C0.09 0.73, 3.3 -0.94, 7.52 0" stroke="#1971c2" stroke-width="2" fill="none"></path></g><g transform="translate(830.3929147721368 190.83379997904314) rotate(0 44.975975036621094 10)"><text x="44.975975036621094" y="0" font-family="Virgil, Segoe UI Emoji" font-size="16px" fill="#1971c2" text-anchor="middle" style="white-space: pre;" direction="ltr" dominant-baseline="text-before-edge">Alteração 1</text></g><g stroke-linecap="round" transform="translate(838.5810513134405 515.3313703758231) rotate(0 55.08455399035529 15.03116907680942)"><path d="M7.52 0 C41.7 0.35, 75.21 0.49, 102.65 0 C108.5 0.96, 112.24 0.46, 110.17 7.52 C108.51 13.2, 111.69 18.79, 110.17 22.55 C110.16 25.99, 108.06 31.13, 102.65 30.06 C70.63 32.58, 43.83 29.31, 7.52 30.06 C1.8 31.14, -2.02 30.91, 0 22.55 C2.63 15.37, -1.28 11.39, 0 7.52 C0.26 3.22, 2.64 2.53, 7.52 0" stroke="none" stroke-width="0" fill="#a5d8ff"></path><path d="M7.52 0 C45.09 1.56, 82.52 1.48, 102.65 0 M7.52 0 C39.72 -0.74, 73.85 -0.23, 102.65 0 M102.65 0 C106.4 0.65, 109.37 4.24, 110.17 7.52 M102.65 0 C109.06 1.69, 108.45 4.42, 110.17 7.52 M110.17 7.52 C110.74 11.09, 109.37 12.85, 110.17 22.55 M110.17 7.52 C109.8 12.22, 110.04 17.69, 110.17 22.55 M110.17 22.55 C111.47 26.43, 109.56 29.34, 102.65 30.06 M110.17 22.55 C110 25.65, 106.19 31.32, 102.65 30.06 M102.65 30.06 C68.83 29.66, 30.99 30.03, 7.52 30.06 M102.65 30.06 C75.12 29.82, 47.36 29.9, 7.52 30.06 M7.52 30.06 C0.84 30.96, -1.26 25.76, 0 22.55 M7.52 30.06 C0.52 29.22, 0.32 25.59, 0 22.55 M0 22.55 C0.69 16.85, 0.48 11.14, 0 7.52 M0 22.55 C-0.17 19.67, 0.3 15.27, 0 7.52 M0 7.52 C-1.01 3.18, 0.71 -1.83, 7.52 0 M0 7.52 C-2.01 2.01, 2.82 -1.99, 7.52 0" stroke="#1971c2" stroke-width="2" fill="none"></path></g><g transform="translate(845.161630389245 520.3625394526325) rotate(0 48.50397491455078 10)"><text x="48.50397491455078" y="0" font-family="Virgil, Segoe UI Emoji" font-size="16px" fill="#1971c2" text-anchor="middle" style="white-space: pre;" direction="ltr" dominant-baseline="text-before-edge">Alteração 2</text></g><g stroke-linecap="round" transform="translate(1116.1181264644688 180.3167812548112) rotate(0 55.08455399035529 15.031169076809448)"><path d="M7.52 0 C32.49 0.46, 63.17 1.39, 102.65 0 C110.12 0.91, 107.54 0.29, 110.17 7.52 C109.55 13, 108.82 15.86, 110.17 22.55 C106.95 29.17, 108.18 27.81, 102.65 30.06 C66.2 28.69, 29.95 26.91, 7.52 30.06 C0.43 33.29, 2.96 24.2, 0 22.55 C-0.74 19.68, -1.43 16.52, 0 7.52 C1.9 -0.86, 0.45 -3.03, 7.52 0" stroke="none" stroke-width="0" fill="#a5d8ff"></path><path d="M7.52 0 C42.36 -0.72, 74.2 1.31, 102.65 0 M7.52 0 C28.19 1.32, 49.63 1.44, 102.65 0 M102.65 0 C108.37 0.73, 110.62 1.15, 110.17 7.52 M102.65 0 C107.15 2.12, 112.31 2.51, 110.17 7.52 M110.17 7.52 C111.6 12.38, 110.78 17.47, 110.17 22.55 M110.17 7.52 C109.6 12.66, 109.86 18.68, 110.17 22.55 M110.17 22.55 C111.61 27.62, 105.74 29.4, 102.65 30.06 M110.17 22.55 C111.64 25.88, 108.45 28.4, 102.65 30.06 M102.65 30.06 C67.98 31.04, 34.34 30.44, 7.52 30.06 M102.65 30.06 C77.41 28.82, 52.7 29.73, 7.52 30.06 M7.52 30.06 C1.25 28.12, 1.09 28.71, 0 22.55 M7.52 30.06 C1.5 29.94, -1.94 27.95, 0 22.55 M0 22.55 C0.5 16.03, 0.25 11.18, 0 7.52 M0 22.55 C0.13 16.98, 0.4 12.06, 0 7.52 M0 7.52 C-1.89 0.77, 0.8 1.35, 7.52 0 M0 7.52 C-0.87 1.17, 2.75 0.01, 7.52 0" stroke="#1971c2" stroke-width="2" fill="none"></path></g><g transform="translate(1122.946706638906 185.34795033162067) rotate(0 48.25597381591797 10)"><text x="48.25597381591797" y="0" font-family="Virgil, Segoe UI Emoji" font-size="16px" fill="#1971c2" text-anchor="middle" style="white-space: pre;" direction="ltr" dominant-baseline="text-before-edge">Alteração 3</text></g><g stroke-linecap="round" transform="translate(1039.9092065783734 519.6367493040764) rotate(0 98.98354831485108 46.38759359430651)"><path d="M23.19 0 C57.24 -0.39, 90.52 -1.34, 174.77 0 C187.68 -2.73, 196.43 7.67, 197.97 23.19 C201.63 33.01, 199.9 42.45, 197.97 69.58 C198.61 86.9, 187.28 93.62, 174.77 92.78 C138.07 96.12, 106.42 95.38, 23.19 92.78 C11.26 95.5, -3.13 86.36, 0 69.58 C-2.35 51.69, 1.43 30.76, 0 23.19 C-0.33 9.4, 8.4 -2.11, 23.19 0" stroke="none" stroke-width="0" fill="#a5d8ff"></path><path d="M23.19 0 C58.8 1.28, 94.27 1.06, 174.77 0 M23.19 0 C77.07 0.04, 131.92 0.61, 174.77 0 M174.77 0 C188.5 -1.76, 196.94 8.68, 197.97 23.19 M174.77 0 C188.04 0.99, 199.19 7.13, 197.97 23.19 M197.97 23.19 C196.47 33.62, 196.69 47.14, 197.97 69.58 M197.97 23.19 C199.4 40.11, 198.32 58.36, 197.97 69.58 M197.97 69.58 C199.34 83.44, 188.39 93.64, 174.77 92.78 M197.97 69.58 C199.39 85.37, 189.4 95.05, 174.77 92.78 M174.77 92.78 C124.65 90.49, 76.71 91.93, 23.19 92.78 M174.77 92.78 C142.09 92.39, 108.34 92.2, 23.19 92.78 M23.19 92.78 C9.44 92.26, -1.22 83.75, 0 69.58 M23.19 92.78 C6.71 91.14, 0.62 83, 0 69.58 M0 69.58 C0.57 60.35, -1.2 47.34, 0 23.19 M0 69.58 C-0.71 56.44, -0.98 42.39, 0 23.19 M0 23.19 C-1.91 6.81, 9.08 1.37, 23.19 0 M0 23.19 C-0.12 9.96, 6.3 -0.31, 23.19 0" stroke="#1971c2" stroke-width="2" fill="none"></path></g><g transform="translate(1055.804803233068 546.0243428983829) rotate(0 83.08795166015625 20)"><text x="83.08795166015625" y="0" font-family="Virgil, Segoe UI Emoji" font-size="16px" fill="#1971c2" text-anchor="middle" style="white-space: pre;" direction="ltr" dominant-baseline="text-before-edge">Alteração 4 - feita </text><text x="83.08795166015625" y="20" font-family="Virgil, Segoe UI Emoji" font-size="16px" fill="#1971c2" text-anchor="middle" style="white-space: pre;" direction="ltr" dominant-baseline="text-before-edge">por outra pessoa</text></g><g mask="url(#mask-cYbQgarBODQoCY8NrhMPk)" stroke-linecap="round"><g transform="translate(1124.0084987434002 212.6449855985055) rotate(0 -27.012872154291472 45.90349331305458)"><path d="M-0.32 -0.47 C-9.33 14.91, -46.05 76.61, -54.92 91.84 M1.71 -1.76 C-6.85 13.87, -43.39 77.8, -52.68 93.4" stroke="#1971c2" stroke-width="2" fill="none"></path></g><g transform="translate(1124.0084987434002 212.6449855985055) rotate(0 -27.012872154291472 45.90349331305458)"><path d="M-48.27 68.79 C-50.16 72.93, -50.33 80.92, -52.68 93.4 M-48.27 68.79 C-49.46 74.98, -50.11 81.04, -52.68 93.4" stroke="#1971c2" stroke-width="2" fill="none"></path></g><g transform="translate(1124.0084987434002 212.6449855985055) rotate(0 -27.012872154291472 45.90349331305458)"><path d="M-33.48 77.38 C-38.73 79.51, -42.29 85.53, -52.68 93.4 M-33.48 77.38 C-38.02 81.69, -42.05 85.78, -52.68 93.4" stroke="#1971c2" stroke-width="2" fill="none"></path></g></g><mask id="mask-cYbQgarBODQoCY8NrhMPk"><rect x="0" y="0" fill="#fff" width="1278.0342430519831" height="404.4519722246147"></rect><rect x="1082.5556394064915" y="248.54847891156015" fill="#000" width="28.879974365234375" height="20" opacity="1"></rect></mask><g transform="translate(1082.5556394064913 248.5484789115601) rotate(0 14.849541270700229 9.913198041087014)"><text x="14.439987182617188" y="0" font-family="Virgil, Segoe UI Emoji" font-size="16px" fill="#1971c2" text-anchor="middle" style="white-space: pre;" direction="ltr" dominant-baseline="text-before-edge">add</text></g><g mask="url(#mask-1pipRtvxOgH226aMzegsd)" stroke-linecap="round"><g transform="translate(894.9308884212797 219.83246266675627) rotate(0 23.775735589292594 39.22046298862304)"><path d="M-0.67 -0.09 C7.12 12.99, 39.36 65.73, 47.26 78.98 M1.18 -1.18 C8.74 11.5, 38.16 64.01, 46.16 77.14" stroke="#1971c2" stroke-width="2" fill="none"></path></g><g transform="translate(894.9308884212797 219.83246266675627) rotate(0 23.775735589292594 39.22046298862304)"><path d="M26.96 61.13 C33.48 66.25, 41.12 70.83, 46.16 77.14 M26.96 61.13 C34.73 66.62, 40.98 72.63, 46.16 77.14" stroke="#1971c2" stroke-width="2" fill="none"></path></g><g transform="translate(894.9308884212797 219.83246266675627) rotate(0 23.775735589292594 39.22046298862304)"><path d="M41.74 52.53 C43.22 60.53, 45.78 68.06, 46.16 77.14 M41.74 52.53 C43.91 61.42, 44.49 70.73, 46.16 77.14" stroke="#1971c2" stroke-width="2" fill="none"></path></g></g><mask id="mask-1pipRtvxOgH226aMzegsd"><rect x="0" y="0" fill="#fff" width="1042.482359599865" height="398.27338864400235"></rect><rect x="904.2666368279549" y="249.05292565537934" fill="#000" width="28.879974365234375" height="20" opacity="1"></rect></mask><g transform="translate(904.2666368279552 249.05292565537928) rotate(0 13.959479773044677 9.68155460100158)"><text x="14.439987182617188" y="0" font-family="Virgil, Segoe UI Emoji" font-size="16px" fill="#1971c2" text-anchor="middle" style="white-space: pre;" direction="ltr" dominant-baseline="text-before-edge">add</text></g><g mask="url(#mask-EPZFTAssnmicl25cCjxZo)" stroke-linecap="round"><g transform="translate(906.8208030293846 513.2868308414404) rotate(0 24.38676999527445 -44.280066135073014)"><path d="M0.21 -0.69 C8.52 -15.6, 41.44 -75.03, 49.64 -89.57 M-1.14 1.56 C7.1 -13.22, 40.8 -73.32, 49.14 -88.57" stroke="#1971c2" stroke-width="2" fill="none"></path></g><g transform="translate(906.8208030293846 513.2868308414404) rotate(0 24.38676999527445 -44.280066135073014)"><path d="M45.22 -63.88 C45.2 -69.41, 45.77 -76.83, 49.14 -88.57 M45.22 -63.88 C47.56 -73.03, 47.45 -80.57, 49.14 -88.57" stroke="#1971c2" stroke-width="2" fill="none"></path></g><g transform="translate(906.8208030293846 513.2868308414404) rotate(0 24.38676999527445 -44.280066135073014)"><path d="M30.27 -72.17 C34.46 -75.4, 39.25 -80.47, 49.14 -88.57 M30.27 -72.17 C37.83 -78.5, 43 -83.11, 49.14 -88.57" stroke="#1971c2" stroke-width="2" fill="none"></path></g></g><mask id="mask-EPZFTAssnmicl25cCjxZo"><rect x="0" y="0" fill="#fff" width="1055.5943430199336" height="701.8469631115864"></rect><rect x="916.7675858420419" y="459.00676470636733" fill="#000" width="28.879974365234375" height="20" opacity="1"></rect></mask><g transform="translate(916.7675858420419 459.00676470636745) rotate(0 14.30047556158604 10.274541213619614)"><text x="14.439987182617188" y="0" font-family="Virgil, Segoe UI Emoji" font-size="16px" fill="#1971c2" text-anchor="middle" style="white-space: pre;" direction="ltr" dominant-baseline="text-before-edge">add</text></g><g mask="url(#mask-BG7aKq22YdJxxe1j_ZmFP)" stroke-linecap="round"><g transform="translate(1123.560612248336 518.0337502595223) rotate(0 -35.140482846743794 -45.91597112438518)"><path d="M0.77 -0.81 C-11.03 -16.45, -57.83 -77.68, -69.8 -92.95 M-0.28 1.38 C-12.28 -14.24, -59.12 -76.52, -70.49 -92.01" stroke="#1971c2" stroke-width="2" fill="none"></path></g><g transform="translate(1123.560612248336 518.0337502595223) rotate(0 -35.140482846743794 -45.91597112438518)"><path d="M-49.6 -78.27 C-59.07 -82.6, -67.61 -89.86, -70.49 -92.01 M-49.6 -78.27 C-53.78 -82.48, -60.25 -85.83, -70.49 -92.01" stroke="#1971c2" stroke-width="2" fill="none"></path></g><g transform="translate(1123.560612248336 518.0337502595223) rotate(0 -35.140482846743794 -45.91597112438518)"><path d="M-63.31 -68.06 C-67.6 -76.39, -70.88 -87.58, -70.49 -92.01 M-63.31 -68.06 C-64.09 -74.87, -67.19 -80.74, -70.49 -92.01" stroke="#1971c2" stroke-width="2" fill="none"></path></g></g><mask id="mask-BG7aKq22YdJxxe1j_ZmFP"><rect x="0" y="0" fill="#fff" width="1293.8415779418235" height="709.8656925082927"></rect><rect x="1073.980142218975" y="462.1177791351372" fill="#000" width="28.879974365234375" height="20" opacity="1"></rect></mask><g transform="translate(1073.9801422189753 462.1177791351372) rotate(0 14.722931364890997 10.129585702228326)"><text x="14.439987182617188" y="0" font-family="Virgil, Segoe UI Emoji" font-size="16px" fill="#1971c2" text-anchor="middle" style="white-space: pre;" direction="ltr" dominant-baseline="text-before-edge">add</text></g><g mask="url(#mask-3n6K2x95Ma4G6ALw70S47)" stroke-linecap="round"><g transform="translate(1089.7505483295795 353.29560919363104) rotate(0 71.33449875513702 0.09454245539501471)"><path d="M0.59 0.4 C24.18 0.29, 118.82 -0.82, 142.64 -0.91 M-0.56 -0.44 C22.77 -0.41, 117.72 -0.18, 141.68 0.04" stroke="#1971c2" stroke-width="2" fill="none"></path></g><g transform="translate(1089.7505483295795 353.29560919363104) rotate(0 71.33449875513702 0.09454245539501471)"><path d="M118.14 8.47 C128.1 4.99, 134.86 3.15, 141.68 0.04 M118.14 8.47 C123.62 5.8, 131.18 3.89, 141.68 0.04" stroke="#1971c2" stroke-width="2" fill="none"></path></g><g transform="translate(1089.7505483295795 353.29560919363104) rotate(0 71.33449875513702 0.09454245539501471)"><path d="M118.24 -8.63 C128.12 -5.37, 134.85 -0.48, 141.68 0.04 M118.24 -8.63 C123.66 -6.7, 131.19 -4.02, 141.68 0.04" stroke="#1971c2" stroke-width="2" fill="none"></path></g></g><mask id="mask-3n6K2x95Ma4G6ALw70S47"><rect x="0" y="0" fill="#fff" width="1332.4195458398535" height="453.48469410442107"></rect><rect x="1136.2370627707514" y="343.39015164902605" fill="#000" width="49.69596862792969" height="20" opacity="1"></rect></mask><g transform="translate(1136.237062770752 343.39015164902617) rotate(0 24.555860049692 9.647822058200802)"><text x="24.847984313964844" y="0" font-family="Virgil, Segoe UI Emoji" font-size="16px" fill="#1971c2" text-anchor="middle" style="white-space: pre;" direction="ltr" dominant-baseline="text-before-edge">commit</text></g><g mask="url(#mask-ri5fEUr539JHFMA6HZ51D)" stroke-linecap="round"><g transform="translate(1403.5689685428638 351.28932762419976) rotate(0 71.7534382889512 0.7435589459994958)"><path d="M0.79 1.1 C24.77 1.43, 120.89 1.2, 144.66 1.08 M-0.25 0.63 C23.6 1.21, 120.5 2.32, 144.31 2.4" stroke="#1971c2" stroke-width="2" fill="none"></path></g><g transform="translate(1403.5689685428638 351.28932762419976) rotate(0 71.7534382889512 0.7435589459994958)"><path d="M120.75 10.76 C131.21 9.48, 137.26 4.35, 144.31 2.4 M120.75 10.76 C124.89 10.07, 129.8 7.57, 144.31 2.4" stroke="#1971c2" stroke-width="2" fill="none"></path></g><g transform="translate(1403.5689685428638 351.28932762419976) rotate(0 71.7534382889512 0.7435589459994958)"><path d="M120.89 -6.34 C131.17 -1.41, 137.17 -0.32, 144.31 2.4 M120.89 -6.34 C124.95 -3.49, 129.83 -2.44, 144.31 2.4" stroke="#1971c2" stroke-width="2" fill="none"></path></g></g><mask id="mask-ri5fEUr539JHFMA6HZ51D"><rect x="0" y="0" fill="#fff" width="1647.0758451207662" height="452.77644551619875"></rect><rect x="1458.5384255085728" y="342.03288657019925" fill="#000" width="33.567962646484375" height="20" opacity="1"></rect></mask><g transform="translate(1458.5384255085728 342.03288657019925) rotate(0 17.231289441552917 10.771335152750908)"><text x="16.783981323242188" y="0" font-family="Virgil, Segoe UI Emoji" font-size="16px" fill="#1971c2" text-anchor="middle" style="white-space: pre;" direction="ltr" dominant-baseline="text-before-edge">push</text></g><g mask="url(#mask-DiqyaMLLy5rrlzX84593X)" stroke-linecap="round"><g transform="translate(1581.4863021564665 419.642344033788) rotate(0 -167.98084562944882 69.88003178185062)"><path d="M-1.18 -0.92 C-57.2 22.23, -281.43 116.17, -337.14 139.62" stroke="#1971c2" stroke-width="2.5" fill="none" stroke-dasharray="8 10"></path></g><g transform="translate(1581.4863021564665 419.642344033788) rotate(0 -167.98084562944882 69.88003178185062)"><path d="M-318.78 122.64 C-324.18 124.16, -326.83 130.68, -337.14 139.62" stroke="#1971c2" stroke-width="2.5" fill="none"></path></g><g transform="translate(1581.4863021564665 419.642344033788) rotate(0 -167.98084562944882 69.88003178185062)"><path d="M-312.17 138.41 C-319.07 136.47, -323.15 139.6, -337.14 139.62" stroke="#1971c2" stroke-width="2.5" fill="none"></path></g></g><mask id="mask-DiqyaMLLy5rrlzX84593X"><rect x="0" y="0" fill="#fff" width="2017.4479934153642" height="659.4024075974892"></rect><rect x="1400.8094726402992" y="479.5223758156387" fill="#000" width="25.3919677734375" height="20" opacity="1"></rect></mask><g transform="translate(1400.8094726402992 479.5223758156387) rotate(0 11.517501318454492 9.467947328090588)"><text x="12.69598388671875" y="0" font-family="Virgil, Segoe UI Emoji" font-size="16px" fill="#1971c2" text-anchor="middle" style="white-space: pre;" direction="ltr" dominant-baseline="text-before-edge">pull</text></g><g stroke-linecap="round" transform="translate(1837.3654316059738 24.4972988943953) rotate(0 71.54376255150737 31.70341060593799)"><path d="M15.85 0 C49.36 0.13, 82.59 -2.54, 127.24 0 C140.94 -3.35, 144.44 4.22, 143.09 15.85 C142.97 31.39, 146.35 37.99, 143.09 47.56 C142.7 60.68, 135.32 62.42, 127.24 63.41 C90.76 67.71, 63.25 63.94, 15.85 63.41 C6.38 61.92, 2.74 58.48, 0 47.56 C-1.6 36.54, 0.35 29.69, 0 15.85 C1.98 7.42, 7.77 -0.72, 15.85 0" stroke="none" stroke-width="0" fill="#a5d8ff"></path><path d="M15.85 0 C46.15 -0.94, 72.82 0.38, 127.24 0 M127.24 0 C138.6 -1.05, 141.96 3.95, 143.09 15.85 M143.09 15.85 C142.43 25.97, 141.43 39.52, 143.09 47.56 M143.09 47.56 C144.81 59.27, 139.37 61.58, 127.24 63.41 M127.24 63.41 C95.8 61.91, 68.38 64.12, 15.85 63.41 M15.85 63.41 C3.37 61.89, -0.75 57.34, 0 47.56 M0 47.56 C0.59 35.21, -0.33 23.35, 0 15.85 M0 15.85 C-1.44 3.59, 5.76 1.65, 15.85 0" stroke="#1971c2" stroke-width="2.5" fill="none" stroke-dasharray="8 10"></path></g><g transform="translate(1862.7252189377546 46.20070950033329) rotate(0 46.18397521972656 10)"><text x="46.18397521972656" y="0" font-family="Virgil, Segoe UI Emoji" font-size="16px" fill="#1971c2" text-anchor="middle" style="white-space: pre;" direction="ltr" dominant-baseline="text-before-edge">Branch main</text></g><g stroke-linecap="round" transform="translate(1999.9881719658215 37.673331432075884) rotate(0 17.423949420195868 17.42394942019594)"><path d="M21.38 0.1 C24.88 0.56, 29.09 3.78, 31.28 6.73 C33.46 9.68, 34.66 14.13, 34.49 17.8 C34.31 21.47, 32.66 25.89, 30.24 28.76 C27.82 31.63, 23.7 34.51, 19.98 35.04 C16.25 35.58, 11.03 34.06, 7.88 31.98 C4.73 29.89, 2.13 25.98, 1.07 22.53 C0.02 19.08, 0.22 14.73, 1.56 11.27 C2.9 7.82, 5.8 3.56, 9.11 1.83 C12.42 0.1, 19.2 1.11, 21.41 0.89 C23.62 0.67, 22.49 0.33, 22.37 0.51 M15.91 -0.06 C19.6 -0.45, 24.98 1.16, 28.04 3.46 C31.1 5.77, 33.47 10.22, 34.27 13.75 C35.07 17.28, 34.42 21.5, 32.82 24.64 C31.22 27.78, 28.05 31.02, 24.66 32.59 C21.27 34.17, 16.15 35.07, 12.48 34.07 C8.8 33.06, 4.66 29.64, 2.59 26.56 C0.53 23.49, -0.47 19.2, 0.09 15.6 C0.65 11.99, 3.36 7.65, 5.96 4.94 C8.55 2.22, 14.06 0.14, 15.66 -0.69 C17.26 -1.52, 15.47 -0.35, 15.58 -0.02" stroke="none" stroke-width="0" fill="#a5d8ff"></path><path d="M16.79 -0.11 C20.28 -0.35, 25.6 1.94, 28.61 4.33 C31.63 6.72, 34.18 10.54, 34.88 14.23 C35.59 17.92, 34.68 23.15, 32.83 26.46 C30.99 29.77, 27.39 32.93, 23.82 34.08 C20.25 35.24, 15.07 34.72, 11.42 33.38 C7.77 32.05, 3.79 29.17, 1.93 26.08 C0.08 23, -0.48 18.52, 0.27 14.87 C1.03 11.22, 3.45 6.63, 6.46 4.21 C9.46 1.78, 16.22 0.89, 18.3 0.31 C20.38 -0.27, 18.93 0.53, 18.94 0.71 M21.07 0.97 C24.72 1.34, 28.78 3.93, 31.14 6.68 C33.5 9.43, 35.23 13.89, 35.25 17.47 C35.27 21.05, 33.83 25.38, 31.29 28.14 C28.74 30.9, 23.65 33.26, 19.99 34.05 C16.32 34.84, 12.48 34.62, 9.3 32.87 C6.12 31.13, 2.14 27.18, 0.89 23.6 C-0.36 20.02, 0.52 15.02, 1.79 11.37 C3.06 7.73, 5.51 3.58, 8.5 1.73 C11.48 -0.13, 17.64 0.33, 19.71 0.24 C21.77 0.14, 20.78 0.89, 20.86 1.14" stroke="#1971c2" stroke-width="2" fill="none"></path></g><g stroke-linecap="round" transform="translate(2317.3585073792988 162.82262598871665) rotate(0 17.423949420195868 17.423949420195925)"><path d="M17.81 -0.47 C21.43 -0.62, 26.06 1.53, 28.93 3.97 C31.81 6.42, 34.53 10.44, 35.06 14.2 C35.6 17.96, 34.11 23.23, 32.14 26.56 C30.17 29.88, 26.67 32.93, 23.24 34.16 C19.81 35.4, 15.12 35.34, 11.58 33.97 C8.03 32.59, 3.77 29.18, 1.97 25.92 C0.17 22.67, 0.04 18.06, 0.77 14.43 C1.5 10.8, 3.49 6.57, 6.35 4.16 C9.21 1.75, 15.82 0.62, 17.93 -0.02 C20.04 -0.66, 19.01 -0.05, 19.02 0.31 M13.87 0 C17.32 -0.71, 22.86 0.67, 26.24 2.57 C29.63 4.47, 32.79 7.84, 34.16 11.42 C35.53 15.01, 35.83 20.51, 34.47 24.08 C33.1 27.65, 29.27 31.16, 25.96 32.82 C22.64 34.48, 18.31 34.84, 14.57 34.02 C10.83 33.2, 5.87 30.79, 3.5 27.91 C1.12 25.04, 0.31 20.45, 0.32 16.77 C0.33 13.1, 1.19 8.62, 3.54 5.85 C5.89 3.08, 12.51 0.97, 14.41 0.18 C16.32 -0.62, 14.91 0.79, 14.97 1.09" stroke="none" stroke-width="0" fill="#a5d8ff"></path><path d="M20.4 -0.07 C23.85 0.43, 28.25 3.69, 30.66 6.71 C33.08 9.74, 34.86 14.36, 34.9 18.07 C34.93 21.78, 33.27 26.18, 30.88 28.99 C28.5 31.8, 24.28 34.31, 20.58 34.93 C16.88 35.55, 11.96 34.65, 8.68 32.72 C5.39 30.79, 2.19 26.97, 0.86 23.34 C-0.47 19.71, -0.58 14.45, 0.7 10.95 C1.97 7.45, 5.06 4.18, 8.52 2.35 C11.97 0.52, 19.22 0.14, 21.43 -0.03 C23.63 -0.2, 21.88 0.94, 21.75 1.35 M18.09 -0.46 C21.69 -0.4, 26.76 2.11, 29.45 4.72 C32.15 7.32, 33.83 11.35, 34.26 15.17 C34.7 18.98, 33.93 24.41, 32.06 27.61 C30.19 30.82, 26.52 33.54, 23.03 34.39 C19.54 35.25, 14.75 34.21, 11.1 32.75 C7.45 31.28, 2.97 28.87, 1.11 25.62 C-0.74 22.37, -0.92 16.83, -0.03 13.23 C0.87 9.64, 3.51 6.35, 6.49 4.04 C9.47 1.74, 15.96 0.12, 17.86 -0.61 C19.77 -1.34, 17.77 -0.81, 17.92 -0.34" stroke="#1971c2" stroke-width="2" fill="none"></path></g><g stroke-linecap="round" transform="translate(2395.1031642246244 159.2822934538023) rotate(0 17.423949420195868 17.423949420195925)"><path d="M14.48 0.29 C17.94 -0.63, 23.23 0.24, 26.44 2.17 C29.64 4.1, 32.52 8.29, 33.72 11.87 C34.91 15.45, 34.83 20.14, 33.59 23.64 C32.35 27.14, 29.47 31.11, 26.28 32.85 C23.1 34.59, 18.17 34.79, 14.46 34.08 C10.75 33.37, 6.43 31.4, 4.03 28.62 C1.63 25.84, 0.06 21.13, 0.08 17.39 C0.09 13.65, 1.48 9, 4.1 6.16 C6.72 3.33, 13.6 1.41, 15.81 0.4 C18.01 -0.62, 17.38 -0.15, 17.34 0.07 M16.16 0.14 C19.67 -0.39, 24.54 0.57, 27.67 2.72 C30.8 4.87, 34.08 9.25, 34.94 13.05 C35.8 16.85, 34.61 22.26, 32.83 25.53 C31.05 28.81, 27.54 31.19, 24.25 32.71 C20.97 34.22, 16.63 35.67, 13.12 34.6 C9.61 33.54, 5.26 29.52, 3.19 26.3 C1.13 23.08, 0.33 18.98, 0.74 15.31 C1.16 11.64, 3.11 6.88, 5.7 4.3 C8.29 1.71, 14.47 0.49, 16.28 -0.22 C18.08 -0.93, 16.38 -0.23, 16.5 0.03" stroke="none" stroke-width="0" fill="#a5d8ff"></path><path d="M14.58 0.1 C17.99 -0.73, 23.31 0.46, 26.61 2.36 C29.9 4.26, 33.27 7.94, 34.36 11.51 C35.46 15.08, 34.67 20.27, 33.17 23.78 C31.67 27.29, 28.61 30.77, 25.35 32.59 C22.1 34.41, 17.2 35.37, 13.62 34.7 C10.03 34.03, 6.11 31.64, 3.83 28.58 C1.55 25.53, -0.13 20.15, -0.06 16.38 C0 12.6, 1.65 8.69, 4.24 5.94 C6.82 3.19, 13.59 0.76, 15.46 -0.14 C17.33 -1.04, 15.41 0.22, 15.46 0.56 M13.97 0.25 C17.58 -0.56, 23.03 0.62, 26.36 2.41 C29.7 4.19, 32.67 7.68, 33.96 10.99 C35.25 14.3, 35.43 18.83, 34.11 22.28 C32.79 25.73, 29.28 29.71, 26.05 31.69 C22.82 33.66, 18.41 34.7, 14.71 34.14 C11.01 33.58, 6.27 31.02, 3.86 28.35 C1.45 25.67, 0.38 21.62, 0.27 18.1 C0.16 14.57, 0.8 10.08, 3.19 7.22 C5.59 4.36, 12.8 1.95, 14.65 0.95 C16.51 -0.06, 14.47 0.91, 14.31 1.21" stroke="#1971c2" stroke-width="2" fill="none"></path></g><g stroke-linecap="round" transform="translate(2081.2213769483874 39.9862949231659) rotate(0 17.423949420195868 17.42394942019594)"><path d="M18.37 0.5 C21.76 0.48, 26.41 2.16, 29.12 4.69 C31.83 7.22, 34.22 11.91, 34.65 15.68 C35.08 19.45, 33.69 24.18, 31.68 27.3 C29.68 30.42, 26.16 33.3, 22.62 34.38 C19.07 35.45, 13.85 35.26, 10.39 33.74 C6.94 32.22, 3.48 28.69, 1.88 25.26 C0.27 21.82, -0.13 16.75, 0.74 13.13 C1.62 9.52, 4 5.8, 7.12 3.58 C10.24 1.35, 17.37 0.29, 19.48 -0.23 C21.59 -0.74, 19.78 0.16, 19.75 0.49 M20.83 0.88 C24.36 1.42, 27.95 4.25, 30.4 6.98 C32.85 9.72, 35.49 13.74, 35.53 17.27 C35.57 20.79, 33.27 25.27, 30.65 28.11 C28.03 30.94, 23.42 33.61, 19.82 34.28 C16.21 34.94, 12.05 33.97, 9.02 32.09 C5.99 30.2, 2.95 26.53, 1.65 22.97 C0.35 19.4, 0.01 14.25, 1.23 10.71 C2.44 7.17, 5.82 3.48, 8.94 1.71 C12.06 -0.05, 18.11 0.27, 19.95 0.13 C21.8 0, 20.03 0.67, 20.01 0.92" stroke="none" stroke-width="0" fill="#a5d8ff"></path><path d="M14.58 0.71 C18.13 -0.11, 23.21 0.44, 26.35 2.22 C29.48 4, 32.22 7.82, 33.4 11.41 C34.58 14.99, 34.72 20.18, 33.42 23.74 C32.11 27.31, 28.81 31.04, 25.57 32.82 C22.34 34.6, 17.67 35.22, 14 34.44 C10.33 33.65, 5.93 31.02, 3.56 28.1 C1.2 25.18, -0.3 20.65, -0.2 16.92 C-0.09 13.2, 1.61 8.55, 4.18 5.77 C6.76 2.99, 13.32 1.2, 15.27 0.24 C17.23 -0.72, 15.81 -0.24, 15.92 0.01 M20.06 -0.43 C23.59 -0.06, 28.03 3.74, 30.56 6.51 C33.08 9.27, 35.09 12.57, 35.18 16.17 C35.27 19.78, 33.52 25.13, 31.07 28.13 C28.62 31.13, 24.13 33.27, 20.48 34.16 C16.83 35.05, 12.51 35.11, 9.18 33.48 C5.85 31.86, 1.87 27.96, 0.52 24.4 C-0.84 20.85, -0.12 15.68, 1.07 12.15 C2.26 8.63, 4.51 5.17, 7.67 3.24 C10.83 1.3, 18.14 0.87, 20.06 0.53 C21.98 0.2, 19.18 0.9, 19.21 1.23" stroke="#1971c2" stroke-width="2" fill="none"></path></g><g stroke-linecap="round" transform="translate(2153.7426072208555 38.711974710097934) rotate(0 17.423949420195868 17.42394942019594)"><path d="M15.99 0.43 C19.6 -0.26, 24.26 0.71, 27.33 2.75 C30.4 4.79, 33.34 8.98, 34.41 12.67 C35.47 16.36, 35.23 21.44, 33.71 24.91 C32.18 28.38, 28.72 32, 25.27 33.5 C21.81 34.99, 16.65 34.91, 12.99 33.88 C9.34 32.85, 5.48 30.19, 3.36 27.3 C1.25 24.42, 0.1 20.27, 0.31 16.56 C0.51 12.84, 1.95 7.85, 4.57 5.04 C7.19 2.22, 13.94 0.4, 16.01 -0.31 C18.09 -1.03, 16.99 0.38, 17.02 0.73 M12.92 0.34 C16.29 -0.71, 21.61 0.3, 25.04 2.07 C28.48 3.85, 31.98 7.56, 33.54 10.99 C35.11 14.42, 35.52 19.08, 34.41 22.65 C33.31 26.22, 29.98 30.48, 26.92 32.42 C23.86 34.36, 19.83 34.73, 16.04 34.29 C12.24 33.84, 6.86 32.35, 4.16 29.75 C1.46 27.15, 0.08 22.57, -0.18 18.68 C-0.43 14.8, 0.36 9.43, 2.61 6.44 C4.85 3.45, 11.55 1.56, 13.32 0.73 C15.08 -0.1, 13.17 1.17, 13.2 1.45" stroke="none" stroke-width="0" fill="#ffc9c9"></path><path d="M17.32 -0.33 C20.83 -0.61, 25.3 1.6, 28.23 3.92 C31.16 6.25, 34.06 9.91, 34.88 13.62 C35.71 17.33, 35.05 22.84, 33.17 26.18 C31.29 29.51, 27.23 32.37, 23.61 33.62 C20 34.86, 15.03 34.77, 11.49 33.64 C7.94 32.51, 4.28 29.9, 2.35 26.84 C0.43 23.78, -0.6 19.03, -0.04 15.3 C0.51 11.57, 2.85 7.01, 5.69 4.47 C8.52 1.93, 15.01 0.82, 16.96 0.06 C18.92 -0.7, 17.37 -0.31, 17.42 -0.09 M19.16 -0.38 C22.85 -0.32, 27.68 1.85, 30.25 4.49 C32.82 7.13, 34.43 11.69, 34.58 15.48 C34.73 19.26, 33.15 24.15, 31.13 27.2 C29.1 30.25, 25.92 32.71, 22.43 33.79 C18.94 34.87, 13.71 35.26, 10.19 33.69 C6.68 32.12, 3.01 27.76, 1.36 24.36 C-0.3 20.97, -0.78 16.8, 0.25 13.31 C1.28 9.83, 4.38 5.63, 7.54 3.46 C10.71 1.29, 17.21 0.66, 19.24 0.28 C21.27 -0.1, 19.83 0.85, 19.7 1.17" stroke="#e03131" stroke-width="2" fill="none"></path></g><g stroke-linecap="round" transform="translate(2226.8503898891977 162.35064819992778) rotate(0 17.423949420195868 17.423949420195925)"><path d="M13.86 0.09 C17.22 -0.82, 22.07 0.6, 25.43 2.44 C28.78 4.27, 32.61 7.61, 33.97 11.1 C35.33 14.59, 34.86 19.88, 33.59 23.36 C32.31 26.83, 29.46 30.15, 26.31 31.96 C23.16 33.78, 18.3 34.81, 14.69 34.27 C11.08 33.73, 7.02 31.45, 4.64 28.73 C2.25 26.01, 0.54 21.59, 0.37 17.95 C0.2 14.31, 1.24 9.91, 3.63 6.9 C6.02 3.89, 12.88 0.97, 14.72 -0.11 C16.55 -1.18, 14.66 0.17, 14.65 0.44 M20.41 -0.05 C24.01 0.24, 28.21 2.95, 30.7 5.86 C33.19 8.77, 35.42 13.56, 35.36 17.43 C35.3 21.29, 32.83 26.26, 30.36 29.05 C27.89 31.83, 24.1 33.5, 20.54 34.14 C16.98 34.78, 12.15 34.61, 8.98 32.88 C5.81 31.15, 2.94 27.33, 1.52 23.76 C0.1 20.19, -0.64 14.98, 0.43 11.45 C1.51 7.92, 4.78 4.34, 7.97 2.56 C11.16 0.78, 17.51 1.19, 19.56 0.79 C21.61 0.4, 20.27 -0.01, 20.25 0.2" stroke="none" stroke-width="0" fill="#ffc9c9"></path><path d="M14.56 0.39 C18.14 -0.29, 23.48 1.04, 26.65 2.83 C29.82 4.63, 32.42 7.71, 33.59 11.14 C34.75 14.58, 34.9 19.89, 33.64 23.44 C32.39 26.98, 29.24 30.58, 26.06 32.41 C22.89 34.24, 18.22 35.16, 14.58 34.44 C10.93 33.71, 6.6 30.98, 4.18 28.07 C1.76 25.16, 0.12 20.64, 0.08 16.97 C0.04 13.31, 1.42 8.99, 3.95 6.1 C6.47 3.22, 13.26 0.56, 15.23 -0.35 C17.19 -1.26, 15.7 0.21, 15.74 0.65 M19.23 0.59 C22.6 0.47, 26.47 1.91, 29.09 4.44 C31.71 6.97, 34.4 11.88, 34.95 15.76 C35.5 19.63, 34.65 24.7, 32.36 27.68 C30.07 30.65, 24.88 32.64, 21.2 33.6 C17.51 34.57, 13.39 35.08, 10.24 33.48 C7.09 31.88, 3.77 27.48, 2.28 24.03 C0.79 20.57, 0.54 16.19, 1.29 12.74 C2.04 9.29, 3.85 5.48, 6.78 3.32 C9.72 1.16, 16.81 0.27, 18.91 -0.23 C21.01 -0.72, 19.38 0.13, 19.36 0.35" stroke="#e03131" stroke-width="2" fill="none"></path></g><g stroke-linecap="round" transform="translate(2234.9758122034204 40) rotate(0 17.423949420195868 17.42394942019594)"><path d="M17.04 -0.06 C20.46 -0.44, 25.04 1.34, 27.87 3.66 C30.71 5.98, 33.33 10.15, 34.06 13.88 C34.79 17.6, 33.89 22.73, 32.25 26.02 C30.61 29.31, 27.59 32.22, 24.21 33.62 C20.82 35.02, 15.6 35.59, 11.94 34.41 C8.28 33.22, 4.14 29.74, 2.25 26.51 C0.37 23.27, 0.05 18.79, 0.62 15.02 C1.18 11.25, 2.75 6.42, 5.64 3.9 C8.53 1.38, 15.74 0.49, 17.96 -0.1 C20.17 -0.69, 18.99 0.09, 18.93 0.36 M15.72 -0.3 C19.04 -0.9, 23.71 1.12, 26.78 3.39 C29.85 5.66, 33.01 9.85, 34.15 13.32 C35.3 16.79, 35.13 20.86, 33.67 24.2 C32.21 27.54, 28.89 31.55, 25.38 33.35 C21.86 35.15, 16.18 35.99, 12.57 35 C8.96 34.01, 5.8 30.69, 3.73 27.43 C1.65 24.17, -0.09 19.16, 0.12 15.44 C0.33 11.73, 2.32 7.61, 4.96 5.13 C7.6 2.66, 14.17 1.26, 15.95 0.6 C17.72 -0.06, 15.49 0.94, 15.6 1.16" stroke="none" stroke-width="0" fill="#a5d8ff"></path><path d="M15.94 0.22 C19.53 -0.32, 24.61 1.15, 27.7 3.21 C30.79 5.27, 33.49 8.96, 34.49 12.58 C35.48 16.2, 35.3 21.57, 33.65 24.92 C32.01 28.27, 28.04 31.12, 24.64 32.66 C21.24 34.2, 16.8 35.08, 13.24 34.15 C9.68 33.22, 5.56 30.08, 3.29 27.08 C1.01 24.08, -0.75 19.8, -0.44 16.15 C-0.14 12.5, 2.23 7.87, 5.12 5.17 C8.02 2.46, 14.87 0.79, 16.93 -0.07 C18.99 -0.94, 17.51 -0.35, 17.46 -0.03 M19.99 0.52 C23.48 0.74, 27.77 2.57, 30.28 5.25 C32.79 7.92, 34.9 12.65, 35.05 16.55 C35.2 20.45, 33.46 25.61, 31.17 28.63 C28.89 31.65, 24.95 33.93, 21.36 34.65 C17.76 35.37, 12.96 34.61, 9.61 32.95 C6.26 31.29, 2.68 28.05, 1.28 24.68 C-0.12 21.31, 0.04 16.25, 1.2 12.7 C2.36 9.15, 5.03 5.46, 8.22 3.39 C11.4 1.32, 18.28 0.76, 20.33 0.28 C22.38 -0.2, 20.71 0.25, 20.49 0.5" stroke="#1971c2" stroke-width="2" fill="none"></path></g><g stroke-linecap="round" transform="translate(2314.634568236564 40.81259783694844) rotate(0 17.423949420195868 17.42394942019594)"><path d="M17.23 -0.2 C20.85 -0.57, 25.45 1.07, 28.39 3.47 C31.32 5.88, 34.03 10.52, 34.83 14.24 C35.63 17.96, 35.04 22.6, 33.18 25.79 C31.32 28.98, 27.16 32.03, 23.67 33.39 C20.19 34.75, 15.85 35.14, 12.3 33.96 C8.75 32.78, 4.36 29.51, 2.37 26.3 C0.39 23.1, -0.12 18.3, 0.41 14.73 C0.95 11.17, 2.81 7.4, 5.6 4.92 C8.38 2.45, 15.16 0.56, 17.12 -0.13 C19.08 -0.82, 17.34 0.39, 17.37 0.78 M20.94 0.27 C24.46 0.85, 27.77 3.99, 30.09 6.89 C32.4 9.78, 34.77 14.1, 34.83 17.63 C34.88 21.16, 32.85 25.15, 30.43 28.06 C28 30.97, 23.97 34.32, 20.26 35.08 C16.54 35.85, 11.3 34.7, 8.14 32.65 C4.99 30.61, 2.49 26.35, 1.33 22.84 C0.17 19.32, 0.03 14.89, 1.18 11.56 C2.34 8.24, 5.11 4.8, 8.27 2.9 C11.42 0.99, 18.11 0.55, 20.11 0.15 C22.11 -0.24, 20.24 0.18, 20.28 0.51" stroke="none" stroke-width="0" fill="#a5d8ff"></path><path d="M16.19 0 C19.69 -0.67, 24.06 0.59, 27.1 2.72 C30.13 4.85, 33.34 9.06, 34.42 12.78 C35.5 16.49, 35.22 21.53, 33.57 24.99 C31.92 28.45, 27.93 32.03, 24.52 33.53 C21.11 35.03, 16.58 34.95, 13.11 34 C9.63 33.05, 5.86 30.84, 3.68 27.84 C1.5 24.85, -0.14 19.82, 0.03 16.03 C0.2 12.24, 1.98 7.76, 4.69 5.1 C7.4 2.45, 14.21 0.93, 16.28 0.11 C18.36 -0.71, 17.03 -0.16, 17.14 0.19 M18.65 -0.74 C22.12 -0.96, 26.53 1.34, 29.25 3.86 C31.98 6.39, 34.58 10.57, 35.01 14.4 C35.45 18.23, 33.98 23.66, 31.86 26.84 C29.74 30.02, 25.75 32.34, 22.28 33.47 C18.81 34.61, 14.36 34.95, 11.05 33.66 C7.73 32.37, 4.29 29.07, 2.39 25.74 C0.5 22.41, -1.11 17.45, -0.31 13.67 C0.5 9.88, 4.08 5.44, 7.23 3.04 C10.38 0.64, 16.76 -0.31, 18.6 -0.74 C20.44 -1.17, 18.46 0.06, 18.26 0.47" stroke="#1971c2" stroke-width="2" fill="none"></path></g><g stroke-linecap="round" transform="translate(2428.753180433394 40.82862132492366) rotate(0 17.423949420195868 17.42394942019594)"><path d="M20.94 0.33 C24.47 0.87, 29.01 3.75, 31.35 6.69 C33.69 9.63, 35.18 14.3, 34.98 18 C34.78 21.69, 32.76 26.12, 30.15 28.87 C27.55 31.63, 23.09 34.07, 19.33 34.54 C15.58 35.01, 10.69 33.75, 7.63 31.7 C4.57 29.66, 2.07 25.85, 0.99 22.26 C-0.1 18.67, -0.29 13.56, 1.12 10.18 C2.53 6.79, 5.85 3.53, 9.45 1.94 C13.05 0.36, 20.4 0.85, 22.7 0.67 C24.99 0.49, 23.38 0.61, 23.2 0.86 M15.33 0.94 C18.65 0.24, 22.93 0.76, 26.03 2.56 C29.13 4.37, 32.58 8.3, 33.92 11.78 C35.25 15.25, 35.3 19.85, 34.06 23.41 C32.82 26.96, 29.85 31.22, 26.48 33.1 C23.11 34.98, 17.68 35.38, 13.85 34.68 C10.02 33.98, 5.88 31.84, 3.5 28.89 C1.11 25.94, -0.61 20.77, -0.44 16.97 C-0.26 13.16, 2.03 8.89, 4.57 6.08 C7.1 3.27, 13.07 1.04, 14.78 0.09 C16.5 -0.86, 14.71 -0.02, 14.84 0.36" stroke="none" stroke-width="0" fill="#a5d8ff"></path><path d="M17.64 0.21 C21.22 -0.03, 25.99 1.29, 28.79 3.61 C31.58 5.93, 33.79 10.4, 34.42 14.12 C35.06 17.84, 34.43 22.63, 32.62 25.94 C30.81 29.26, 27.06 32.65, 23.55 33.99 C20.04 35.33, 15.04 35.22, 11.57 33.98 C8.09 32.75, 4.54 29.92, 2.69 26.58 C0.85 23.25, -0.16 17.63, 0.5 13.96 C1.16 10.29, 3.67 6.87, 6.63 4.57 C9.59 2.26, 16.31 0.86, 18.26 0.11 C20.22 -0.63, 18.41 -0.27, 18.38 0.07 M17 0.07 C20.7 -0.3, 25.74 1.28, 28.7 3.69 C31.65 6.09, 34.12 10.89, 34.71 14.49 C35.31 18.1, 34.11 22.19, 32.26 25.33 C30.41 28.47, 27 31.84, 23.62 33.31 C20.25 34.78, 15.63 35.34, 12.01 34.14 C8.4 32.94, 3.89 29.23, 1.92 26.11 C-0.05 22.99, -0.45 18.96, 0.21 15.4 C0.86 11.85, 2.94 7.23, 5.85 4.78 C8.75 2.33, 15.71 1.34, 17.61 0.72 C19.51 0.1, 17.49 0.76, 17.26 1.05" stroke="#1971c2" stroke-width="2" fill="none"></path></g><g stroke-linecap="round"><g transform="translate(1981.5392843444379 56.30976817615553) rotate(0 221.6389987033051 1.341489995510571)"><path d="M0 -1.2 C73.79 -0.63, 369.21 1.91, 442.98 2.52 M-1.47 0.79 C72.13 1.62, 367.44 3.49, 441.87 3.97" stroke="#1971c2" stroke-width="2" fill="none"></path></g><g transform="translate(1981.5392843444379 56.30976817615553) rotate(0 221.6389987033051 1.341489995510571)"><path d="M418.32 12.37 C423.82 9.21, 432.98 5.9, 441.87 3.97 M418.32 12.37 C425.35 9.64, 432.28 8.57, 441.87 3.97" stroke="#1971c2" stroke-width="2" fill="none"></path></g><g transform="translate(1981.5392843444379 56.30976817615553) rotate(0 221.6389987033051 1.341489995510571)"><path d="M418.43 -4.73 C423.77 -2.49, 432.89 -0.4, 441.87 3.97 M418.43 -4.73 C425.57 -2.64, 432.46 1.13, 441.87 3.97" stroke="#1971c2" stroke-width="2" fill="none"></path></g></g><mask></mask><g mask="url(#mask-Vb2T2iQ2apzXZf3S7jAKp)" stroke-linecap="round"><g transform="translate(2178.854685209289 76.97669654592096) rotate(0 28.40052736769394 41.8041455454792)"><path d="M-0.05 0.95 C9.16 14.8, 46.46 68.8, 55.99 82.48 M-1.53 0.41 C7.99 14.41, 48.6 69.48, 58.27 83.43" stroke="#e03131" stroke-width="2" fill="none"></path></g><g transform="translate(2178.854685209289 76.97669654592096) rotate(0 28.40052736769394 41.8041455454792)"><path d="M37.63 69.33 C46.6 73.06, 50.58 79.97, 58.27 83.43 M37.63 69.33 C42.48 71.89, 48.73 76.83, 58.27 83.43" stroke="#e03131" stroke-width="2" fill="none"></path></g><g transform="translate(2178.854685209289 76.97669654592096) rotate(0 28.40052736769394 41.8041455454792)"><path d="M51.52 59.36 C55.44 66.69, 54.4 77.19, 58.27 83.43 M51.52 59.36 C52.92 64.51, 55.62 71.99, 58.27 83.43" stroke="#e03131" stroke-width="2" fill="none"></path></g></g><mask id="mask-Vb2T2iQ2apzXZf3S7jAKp"><rect x="0" y="0" fill="#fff" width="2335.655739944677" height="260.58498763687936"></rect><rect x="2176.58323076546" y="108.78084209140019" fill="#000" width="61.343963623046875" height="20" opacity="1"></rect></mask><g transform="translate(2176.5832307654596 108.78084209140019) rotate(0 30.64002528586434 10.116549905305703)"><text x="30.671981811523438" y="0" font-family="Virgil, Segoe UI Emoji" font-size="16px" fill="#1971c2" text-anchor="middle" style="white-space: pre;" direction="ltr" dominant-baseline="text-before-edge">Branche</text></g><g transform="translate(2145.529396534516 10) rotate(0 50.119964599609375 10)"><text x="0" y="0" font-family="Virgil, Segoe UI Emoji" font-size="16px" fill="#e03131" text-anchor="start" style="white-space: pre;" direction="ltr" dominant-baseline="text-before-edge">Commit abcd1</text></g><g transform="translate(2192.501255072564 202.82200207001944) rotate(0 50.119964599609375 10)"><text x="0" y="0" font-family="Virgil, Segoe UI Emoji" font-size="16px" fill="#e03131" text-anchor="start" style="white-space: pre;" direction="ltr" dominant-baseline="text-before-edge">Commit abcd1</text></g><g stroke-linecap="round" transform="translate(2010.1564068892858 151.02349000913563) rotate(0 80.44147558832992 31.70341060593799)"><path d="M15.85 0 C60.36 -0.09, 101.11 -4.57, 145.03 0 C155.1 -1.56, 157.43 4.68, 160.88 15.85 C159.65 29.01, 159.26 36.62, 160.88 47.56 C160.34 59.09, 156.03 63.09, 145.03 63.41 C106.15 65.09, 67.68 61.53, 15.85 63.41 C3.19 62.33, -3.21 60.18, 0 47.56 C0.49 38.16, -0.16 28.67, 0 15.85 C1.5 4.06, 1.79 -1.86, 15.85 0" stroke="none" stroke-width="0" fill="#a5d8ff"></path><path d="M15.85 0 C45.93 1.08, 73.99 1.01, 145.03 0 M145.03 0 C157.23 -1.31, 160.43 7.14, 160.88 15.85 M160.88 15.85 C161.16 25.57, 161.75 34.86, 160.88 47.56 M160.88 47.56 C161.86 56.57, 153.89 63.15, 145.03 63.41 M145.03 63.41 C114.83 63.91, 86.18 63.16, 15.85 63.41 M15.85 63.41 C5.9 61.48, 1.05 59.64, 0 47.56 M0 47.56 C-0.16 34.99, 1.71 20.9, 0 15.85 M0 15.85 C1.77 5.53, 6.73 -1.35, 15.85 0" stroke="#1971c2" stroke-width="2.5" fill="none" stroke-dasharray="8 10"></path></g><g transform="translate(2023.317929474686 172.7269006150736) rotate(0 67.27995300292969 10)"><text x="67.27995300292969" y="0" font-family="Virgil, Segoe UI Emoji" font-size="16px" fill="#1971c2" text-anchor="middle" style="white-space: pre;" direction="ltr" dominant-baseline="text-before-edge">Branch login-page</text></g><g stroke-linecap="round"><g transform="translate(2263.9819396040925 182.07649762556315) rotate(0 23.999745534655176 -0.18832299093051574)"><path d="M0.52 -0.24 C8.43 -0.44, 39.57 -0.89, 47.48 -0.82 M0.13 0.82 C8.19 0.64, 40.53 -0.12, 48.45 -0.36" stroke="#1971c2" stroke-width="2" fill="none"></path></g><g transform="translate(2263.9819396040925 182.07649762556315) rotate(0 23.999745534655176 -0.18832299093051574)"><path d="M26.12 8.44 C32.51 4.69, 39.01 2.9, 48.45 -0.36 M26.12 8.44 C35.28 4.73, 43.98 1.72, 48.45 -0.36" stroke="#1971c2" stroke-width="2" fill="none"></path></g><g transform="translate(2263.9819396040925 182.07649762556315) rotate(0 23.999745534655176 -0.18832299093051574)"><path d="M25.69 -7.97 C32.27 -6.68, 38.9 -3.42, 48.45 -0.36 M25.69 -7.97 C34.95 -5.13, 43.82 -1.58, 48.45 -0.36" stroke="#1971c2" stroke-width="2" fill="none"></path></g></g><mask></mask><g stroke-linecap="round"><g transform="translate(2354.493536573723 179.51142045739192) rotate(0 18.570434392632933 0.1537499016766617)"><path d="M0.33 -0.19 C6.59 -0.07, 31.12 0.46, 37.31 0.57 M-0.16 -0.76 C6.06 -0.79, 30.73 -0.3, 36.97 -0.25" stroke="#1971c2" stroke-width="2" fill="none"></path></g><g transform="translate(2354.493536573723 179.51142045739192) rotate(0 18.570434392632933 0.1537499016766617)"><path d="M19.43 5.85 C23.61 4.52, 28.86 3.2, 36.97 -0.25 M19.43 5.85 C25.39 3.88, 31.25 1.72, 36.97 -0.25" stroke="#1971c2" stroke-width="2" fill="none"></path></g><g transform="translate(2354.493536573723 179.51142045739192) rotate(0 18.570434392632933 0.1537499016766617)"><path d="M19.61 -6.85 C23.73 -4.93, 28.94 -3, 36.97 -0.25 M19.61 -6.85 C25.45 -4.58, 31.25 -2.49, 36.97 -0.25" stroke="#1971c2" stroke-width="2" fill="none"></path></g></g><mask></mask><g mask="url(#mask-y0R6jlwx3AlFZPsJ96hiZ)" stroke-linecap="round"><g transform="translate(2422.107839494875 160.03623794560264) rotate(0 10.522482066268822 -40.46862228032725)"><path d="M1.04 -1.19 C4.81 -15, 18.58 -68.55, 21.79 -81.86 M0.13 0.8 C3.87 -12.97, 18.06 -67.38, 21.24 -80.81" stroke="#1971c2" stroke-width="2" fill="none"></path></g><g transform="translate(2422.107839494875 160.03623794560264) rotate(0 10.522482066268822 -40.46862228032725)"><path d="M23.82 -55.94 C21.03 -60.46, 20.87 -68.66, 21.24 -80.81 M23.82 -55.94 C22.13 -62.83, 22.4 -70.52, 21.24 -80.81" stroke="#1971c2" stroke-width="2" fill="none"></path></g><g transform="translate(2422.107839494875 160.03623794560264) rotate(0 10.522482066268822 -40.46862228032725)"><path d="M7.23 -60.1 C8.34 -63.8, 12.05 -71.03, 21.24 -80.81 M7.23 -60.1 C10.37 -65.67, 15.5 -72.14, 21.24 -80.81" stroke="#1971c2" stroke-width="2" fill="none"></path></g></g><mask id="mask-y0R6jlwx3AlFZPsJ96hiZ"><rect x="0" y="0" fill="#fff" width="2543.1528036274126" height="340.97348250625714"></rect><rect x="2410.302333890245" y="109.56761566527535" fill="#000" width="44.655975341796875" height="20" opacity="1"></rect></mask><g transform="translate(2410.3023338902453 109.56761566527535) rotate(0 22.766855452326126 9.936677295970767)"><text x="22.327987670898438" y="0" font-family="Virgil, Segoe UI Emoji" font-size="16px" fill="#1971c2" text-anchor="middle" style="white-space: pre;" direction="ltr" dominant-baseline="text-before-edge">Merge</text></g></svg>